<?xml version="1.0" encoding="UTF-8"?>
<svg xmlns="http://www.w3.org/2000/svg" xmlns:xlink="http://www.w3.org/1999/xlink" width="504" height="302" viewBox="0 0 504 302">
<defs>
<g>
<g id="glyph-0-0">
<path d="M 0.3125 0 L 0.3125 -6.875 L 5.765625 -6.875 L 5.765625 0 Z M 4.90625 -0.859375 L 4.90625 -6.015625 L 1.171875 -6.015625 L 1.171875 -0.859375 Z M 4.90625 -0.859375 "/>
</g>
<g id="glyph-0-1">
<path d="M 2.59375 -6.703125 C 3.457031 -6.703125 4.085938 -6.347656 4.484375 -5.640625 C 4.773438 -5.085938 4.921875 -4.328125 4.921875 -3.359375 C 4.921875 -2.453125 4.785156 -1.695312 4.515625 -1.09375 C 4.128906 -0.238281 3.488281 0.1875 2.59375 0.1875 C 1.78125 0.1875 1.179688 -0.160156 0.796875 -0.859375 C 0.460938 -1.453125 0.296875 -2.238281 0.296875 -3.21875 C 0.296875 -3.976562 0.394531 -4.632812 0.59375 -5.1875 C 0.957031 -6.195312 1.625 -6.703125 2.59375 -6.703125 Z M 2.578125 -0.578125 C 3.015625 -0.578125 3.363281 -0.769531 3.625 -1.15625 C 3.882812 -1.550781 4.015625 -2.273438 4.015625 -3.328125 C 4.015625 -4.085938 3.921875 -4.710938 3.734375 -5.203125 C 3.546875 -5.703125 3.179688 -5.953125 2.640625 -5.953125 C 2.148438 -5.953125 1.789062 -5.71875 1.5625 -5.25 C 1.332031 -4.78125 1.21875 -4.09375 1.21875 -3.1875 C 1.21875 -2.5 1.289062 -1.945312 1.4375 -1.53125 C 1.65625 -0.894531 2.035156 -0.578125 2.578125 -0.578125 Z M 2.578125 -0.578125 "/>
</g>
<g id="glyph-0-2">
<path d="M 1.1875 -1.703125 C 1.238281 -1.222656 1.460938 -0.894531 1.859375 -0.71875 C 2.054688 -0.625 2.285156 -0.578125 2.546875 -0.578125 C 3.046875 -0.578125 3.414062 -0.734375 3.65625 -1.046875 C 3.894531 -1.367188 4.015625 -1.722656 4.015625 -2.109375 C 4.015625 -2.578125 3.867188 -2.9375 3.578125 -3.1875 C 3.296875 -3.445312 2.957031 -3.578125 2.5625 -3.578125 C 2.269531 -3.578125 2.019531 -3.519531 1.8125 -3.40625 C 1.601562 -3.289062 1.425781 -3.132812 1.28125 -2.9375 L 0.546875 -2.984375 L 1.0625 -6.59375 L 4.546875 -6.59375 L 4.546875 -5.78125 L 1.703125 -5.78125 L 1.40625 -3.921875 C 1.5625 -4.035156 1.710938 -4.125 1.859375 -4.1875 C 2.109375 -4.289062 2.394531 -4.34375 2.71875 -4.34375 C 3.332031 -4.34375 3.851562 -4.140625 4.28125 -3.734375 C 4.707031 -3.335938 4.921875 -2.835938 4.921875 -2.234375 C 4.921875 -1.597656 4.722656 -1.035156 4.328125 -0.546875 C 3.941406 -0.0664062 3.320312 0.171875 2.46875 0.171875 C 1.914062 0.171875 1.429688 0.0195312 1.015625 -0.28125 C 0.597656 -0.59375 0.363281 -1.066406 0.3125 -1.703125 Z M 1.1875 -1.703125 "/>
</g>
<g id="glyph-0-3">
<path d="M 0.921875 -4.75 L 0.921875 -5.390625 C 1.523438 -5.453125 1.945312 -5.550781 2.1875 -5.6875 C 2.425781 -5.832031 2.609375 -6.164062 2.734375 -6.6875 L 3.390625 -6.6875 L 3.390625 0 L 2.5 0 L 2.5 -4.75 Z M 0.921875 -4.75 "/>
</g>
<g id="glyph-0-4">
<path d="M 4.265625 -2.8125 L 3.21875 -5.859375 L 2.109375 -2.8125 Z M 2.734375 -6.875 L 3.78125 -6.875 L 6.28125 0 L 5.265625 0 L 4.5625 -2.0625 L 1.84375 -2.0625 L 1.09375 0 L 0.140625 0 Z M 2.734375 -6.875 "/>
</g>
<g id="glyph-0-5">
<path d="M 2.734375 -0.5625 C 3.128906 -0.5625 3.457031 -0.726562 3.71875 -1.0625 C 3.976562 -1.394531 4.109375 -1.882812 4.109375 -2.53125 C 4.109375 -2.9375 4.050781 -3.28125 3.9375 -3.5625 C 3.71875 -4.125 3.316406 -4.40625 2.734375 -4.40625 C 2.148438 -4.40625 1.75 -4.109375 1.53125 -3.515625 C 1.414062 -3.203125 1.359375 -2.804688 1.359375 -2.328125 C 1.359375 -1.941406 1.414062 -1.613281 1.53125 -1.34375 C 1.75 -0.820312 2.148438 -0.5625 2.734375 -0.5625 Z M 0.546875 -5 L 1.375 -5 L 1.375 -4.328125 C 1.539062 -4.554688 1.722656 -4.734375 1.921875 -4.859375 C 2.210938 -5.046875 2.546875 -5.140625 2.921875 -5.140625 C 3.492188 -5.140625 3.976562 -4.921875 4.375 -4.484375 C 4.769531 -4.046875 4.96875 -3.425781 4.96875 -2.625 C 4.96875 -1.53125 4.679688 -0.75 4.109375 -0.28125 C 3.742188 0.0195312 3.320312 0.171875 2.84375 0.171875 C 2.46875 0.171875 2.148438 0.0859375 1.890625 -0.078125 C 1.742188 -0.171875 1.578125 -0.332031 1.390625 -0.5625 L 1.390625 2 L 0.546875 2 Z M 0.546875 -5 "/>
</g>
<g id="glyph-0-6">
<path d="M 0.640625 -5.015625 L 1.4375 -5.015625 L 1.4375 -4.15625 C 1.507812 -4.320312 1.671875 -4.523438 1.921875 -4.765625 C 2.179688 -5.003906 2.476562 -5.125 2.8125 -5.125 C 2.820312 -5.125 2.847656 -5.125 2.890625 -5.125 C 2.929688 -5.125 2.992188 -5.117188 3.078125 -5.109375 L 3.078125 -4.21875 C 3.023438 -4.226562 2.976562 -4.234375 2.9375 -4.234375 C 2.894531 -4.234375 2.851562 -4.234375 2.8125 -4.234375 C 2.382812 -4.234375 2.054688 -4.097656 1.828125 -3.828125 C 1.597656 -3.554688 1.484375 -3.242188 1.484375 -2.890625 L 1.484375 0 L 0.640625 0 Z M 0.640625 -5.015625 "/>
</g>
<g id="glyph-0-7">
</g>
<g id="glyph-0-8">
<path d="M 0.296875 0 C 0.328125 -0.570312 0.445312 -1.070312 0.65625 -1.5 C 0.863281 -1.9375 1.269531 -2.328125 1.875 -2.671875 L 2.765625 -3.1875 C 3.171875 -3.425781 3.457031 -3.628906 3.625 -3.796875 C 3.875 -4.054688 4 -4.351562 4 -4.6875 C 4 -5.070312 3.878906 -5.378906 3.640625 -5.609375 C 3.410156 -5.835938 3.101562 -5.953125 2.71875 -5.953125 C 2.132812 -5.953125 1.734375 -5.734375 1.515625 -5.296875 C 1.398438 -5.066406 1.335938 -4.742188 1.328125 -4.328125 L 0.46875 -4.328125 C 0.476562 -4.910156 0.582031 -5.382812 0.78125 -5.75 C 1.144531 -6.40625 1.789062 -6.734375 2.71875 -6.734375 C 3.488281 -6.734375 4.050781 -6.523438 4.40625 -6.109375 C 4.757812 -5.691406 4.9375 -5.226562 4.9375 -4.71875 C 4.9375 -4.1875 4.75 -3.726562 4.375 -3.34375 C 4.15625 -3.125 3.757812 -2.851562 3.1875 -2.53125 L 2.546875 -2.1875 C 2.242188 -2.019531 2.003906 -1.859375 1.828125 -1.703125 C 1.515625 -1.429688 1.316406 -1.128906 1.234375 -0.796875 L 4.90625 -0.796875 L 4.90625 0 Z M 0.296875 0 "/>
</g>
<g id="glyph-0-9">
<path d="M 4.109375 -2.046875 C 4.109375 -1.472656 4.019531 -1.023438 3.84375 -0.703125 C 3.53125 -0.109375 2.925781 0.1875 2.03125 0.1875 C 1.519531 0.1875 1.078125 0.046875 0.703125 -0.234375 C 0.335938 -0.515625 0.15625 -1.015625 0.15625 -1.734375 L 0.15625 -2.21875 L 1.046875 -2.21875 L 1.046875 -1.734375 C 1.046875 -1.359375 1.128906 -1.070312 1.296875 -0.875 C 1.460938 -0.6875 1.722656 -0.59375 2.078125 -0.59375 C 2.566406 -0.59375 2.890625 -0.765625 3.046875 -1.109375 C 3.140625 -1.316406 3.1875 -1.710938 3.1875 -2.296875 L 3.1875 -6.875 L 4.109375 -6.875 Z M 4.109375 -2.046875 "/>
</g>
<g id="glyph-0-10">
<path d="M 1.46875 -5.015625 L 1.46875 -1.6875 C 1.46875 -1.425781 1.503906 -1.21875 1.578125 -1.0625 C 1.734375 -0.757812 2.015625 -0.609375 2.421875 -0.609375 C 3.003906 -0.609375 3.40625 -0.867188 3.625 -1.390625 C 3.738281 -1.671875 3.796875 -2.054688 3.796875 -2.546875 L 3.796875 -5.015625 L 4.640625 -5.015625 L 4.640625 0 L 3.84375 0 L 3.84375 -0.734375 C 3.738281 -0.546875 3.601562 -0.382812 3.4375 -0.25 C 3.113281 0.0078125 2.722656 0.140625 2.265625 0.140625 C 1.554688 0.140625 1.070312 -0.0976562 0.8125 -0.578125 C 0.664062 -0.835938 0.59375 -1.179688 0.59375 -1.609375 L 0.59375 -5.015625 Z M 2.625 -5.140625 Z M 2.625 -5.140625 "/>
</g>
<g id="glyph-0-11">
<path d="M 0.640625 -6.875 L 1.484375 -6.875 L 1.484375 0 L 0.640625 0 Z M 0.640625 -6.875 "/>
</g>
<g id="glyph-0-12">
<path d="M 3.703125 -7.0625 C 4.910156 -7.0625 5.8125 -6.671875 6.40625 -5.890625 C 6.851562 -5.285156 7.078125 -4.507812 7.078125 -3.5625 C 7.078125 -2.53125 6.816406 -1.675781 6.296875 -1 C 5.679688 -0.195312 4.8125 0.203125 3.6875 0.203125 C 2.625 0.203125 1.789062 -0.144531 1.1875 -0.84375 C 0.644531 -1.519531 0.375 -2.375 0.375 -3.40625 C 0.375 -4.332031 0.601562 -5.128906 1.0625 -5.796875 C 1.65625 -6.640625 2.535156 -7.0625 3.703125 -7.0625 Z M 3.796875 -0.625 C 4.617188 -0.625 5.210938 -0.921875 5.578125 -1.515625 C 5.941406 -2.109375 6.125 -2.785156 6.125 -3.546875 C 6.125 -4.359375 5.910156 -5.007812 5.484375 -5.5 C 5.066406 -5.988281 4.488281 -6.234375 3.75 -6.234375 C 3.039062 -6.234375 2.460938 -5.988281 2.015625 -5.5 C 1.566406 -5.019531 1.34375 -4.300781 1.34375 -3.34375 C 1.34375 -2.582031 1.535156 -1.9375 1.921875 -1.40625 C 2.304688 -0.882812 2.929688 -0.625 3.796875 -0.625 Z M 3.734375 -7.0625 Z M 3.734375 -7.0625 "/>
</g>
<g id="glyph-0-13">
<path d="M 2.546875 -5.15625 C 3.117188 -5.15625 3.582031 -5.019531 3.9375 -4.75 C 4.289062 -4.476562 4.503906 -4.003906 4.578125 -3.328125 L 3.75 -3.328125 C 3.695312 -3.640625 3.582031 -3.894531 3.40625 -4.09375 C 3.226562 -4.300781 2.941406 -4.40625 2.546875 -4.40625 C 2.015625 -4.40625 1.632812 -4.144531 1.40625 -3.625 C 1.25 -3.28125 1.171875 -2.859375 1.171875 -2.359375 C 1.171875 -1.859375 1.273438 -1.4375 1.484375 -1.09375 C 1.703125 -0.75 2.039062 -0.578125 2.5 -0.578125 C 2.84375 -0.578125 3.117188 -0.679688 3.328125 -0.890625 C 3.535156 -1.109375 3.675781 -1.40625 3.75 -1.78125 L 4.578125 -1.78125 C 4.484375 -1.113281 4.25 -0.625 3.875 -0.3125 C 3.5 -0.0078125 3.019531 0.140625 2.4375 0.140625 C 1.78125 0.140625 1.253906 -0.0976562 0.859375 -0.578125 C 0.472656 -1.054688 0.28125 -1.65625 0.28125 -2.375 C 0.28125 -3.25 0.492188 -3.929688 0.921875 -4.421875 C 1.347656 -4.910156 1.890625 -5.15625 2.546875 -5.15625 Z M 2.421875 -5.140625 Z M 2.421875 -5.140625 "/>
</g>
<g id="glyph-0-14">
<path d="M 0.78125 -6.421875 L 1.640625 -6.421875 L 1.640625 -5.015625 L 2.4375 -5.015625 L 2.4375 -4.328125 L 1.640625 -4.328125 L 1.640625 -1.046875 C 1.640625 -0.878906 1.695312 -0.765625 1.8125 -0.703125 C 1.882812 -0.671875 1.992188 -0.65625 2.140625 -0.65625 C 2.179688 -0.65625 2.222656 -0.65625 2.265625 -0.65625 C 2.316406 -0.65625 2.375 -0.660156 2.4375 -0.671875 L 2.4375 0 C 2.34375 0.03125 2.242188 0.0507812 2.140625 0.0625 C 2.035156 0.0703125 1.921875 0.078125 1.796875 0.078125 C 1.398438 0.078125 1.128906 -0.0195312 0.984375 -0.21875 C 0.847656 -0.425781 0.78125 -0.6875 0.78125 -1 L 0.78125 -4.328125 L 0.109375 -4.328125 L 0.109375 -5.015625 L 0.78125 -5.015625 Z M 0.78125 -6.421875 "/>
</g>
<g id="glyph-0-15">
<path d="M 1.265625 -1.328125 C 1.265625 -1.085938 1.351562 -0.894531 1.53125 -0.75 C 1.707031 -0.613281 1.921875 -0.546875 2.171875 -0.546875 C 2.460938 -0.546875 2.75 -0.613281 3.03125 -0.75 C 3.5 -0.976562 3.734375 -1.351562 3.734375 -1.875 L 3.734375 -2.546875 C 3.628906 -2.484375 3.492188 -2.429688 3.328125 -2.390625 C 3.171875 -2.347656 3.015625 -2.316406 2.859375 -2.296875 L 2.34375 -2.234375 C 2.039062 -2.191406 1.8125 -2.125 1.65625 -2.03125 C 1.394531 -1.882812 1.265625 -1.648438 1.265625 -1.328125 Z M 3.3125 -3.046875 C 3.5 -3.066406 3.628906 -3.144531 3.703125 -3.28125 C 3.734375 -3.351562 3.75 -3.460938 3.75 -3.609375 C 3.75 -3.890625 3.644531 -4.09375 3.4375 -4.21875 C 3.238281 -4.351562 2.945312 -4.421875 2.5625 -4.421875 C 2.125 -4.421875 1.8125 -4.304688 1.625 -4.078125 C 1.519531 -3.941406 1.453125 -3.742188 1.421875 -3.484375 L 0.640625 -3.484375 C 0.660156 -4.097656 0.863281 -4.523438 1.25 -4.765625 C 1.632812 -5.015625 2.078125 -5.140625 2.578125 -5.140625 C 3.171875 -5.140625 3.65625 -5.023438 4.03125 -4.796875 C 4.394531 -4.578125 4.578125 -4.226562 4.578125 -3.75 L 4.578125 -0.859375 C 4.578125 -0.773438 4.59375 -0.707031 4.625 -0.65625 C 4.664062 -0.601562 4.742188 -0.578125 4.859375 -0.578125 C 4.890625 -0.578125 4.925781 -0.578125 4.96875 -0.578125 C 5.019531 -0.578125 5.070312 -0.582031 5.125 -0.59375 L 5.125 0.015625 C 5 0.0546875 4.898438 0.0820312 4.828125 0.09375 C 4.765625 0.101562 4.671875 0.109375 4.546875 0.109375 C 4.253906 0.109375 4.046875 0.00390625 3.921875 -0.203125 C 3.847656 -0.304688 3.796875 -0.460938 3.765625 -0.671875 C 3.597656 -0.441406 3.351562 -0.242188 3.03125 -0.078125 C 2.707031 0.0859375 2.351562 0.171875 1.96875 0.171875 C 1.5 0.171875 1.117188 0.03125 0.828125 -0.25 C 0.535156 -0.53125 0.390625 -0.882812 0.390625 -1.3125 C 0.390625 -1.78125 0.53125 -2.140625 0.8125 -2.390625 C 1.101562 -2.648438 1.488281 -2.8125 1.96875 -2.875 Z M 2.609375 -5.140625 Z M 2.609375 -5.140625 "/>
</g>
<g id="glyph-0-16">
<path d="M 0.625 -5.015625 L 1.421875 -5.015625 L 1.421875 -4.3125 C 1.660156 -4.601562 1.910156 -4.8125 2.171875 -4.9375 C 2.441406 -5.0625 2.738281 -5.125 3.0625 -5.125 C 3.769531 -5.125 4.25 -4.878906 4.5 -4.390625 C 4.632812 -4.117188 4.703125 -3.726562 4.703125 -3.21875 L 4.703125 0 L 3.84375 0 L 3.84375 -3.15625 C 3.84375 -3.46875 3.800781 -3.71875 3.71875 -3.90625 C 3.5625 -4.21875 3.289062 -4.375 2.90625 -4.375 C 2.695312 -4.375 2.53125 -4.351562 2.40625 -4.3125 C 2.175781 -4.238281 1.972656 -4.097656 1.796875 -3.890625 C 1.660156 -3.734375 1.570312 -3.566406 1.53125 -3.390625 C 1.488281 -3.210938 1.46875 -2.957031 1.46875 -2.625 L 1.46875 0 L 0.625 0 Z M 2.59375 -5.140625 Z M 2.59375 -5.140625 "/>
</g>
<g id="glyph-1-0">
<path d="M 0.390625 0 L 0.390625 -8.609375 L 7.21875 -8.609375 L 7.21875 0 Z M 6.140625 -1.078125 L 6.140625 -7.53125 L 1.46875 -7.53125 L 1.46875 -1.078125 Z M 6.140625 -1.078125 "/>
</g>
<g id="glyph-1-1">
<path d="M 1.4375 -3.0625 C 1.4375 -2.394531 1.578125 -1.832031 1.859375 -1.375 C 2.148438 -0.925781 2.609375 -0.703125 3.234375 -0.703125 C 3.722656 -0.703125 4.125 -0.910156 4.4375 -1.328125 C 4.757812 -1.742188 4.921875 -2.347656 4.921875 -3.140625 C 4.921875 -3.929688 4.753906 -4.515625 4.421875 -4.890625 C 4.097656 -5.273438 3.703125 -5.46875 3.234375 -5.46875 C 2.703125 -5.46875 2.269531 -5.265625 1.9375 -4.859375 C 1.601562 -4.453125 1.4375 -3.851562 1.4375 -3.0625 Z M 3.03125 -6.390625 C 3.507812 -6.390625 3.910156 -6.285156 4.234375 -6.078125 C 4.421875 -5.960938 4.632812 -5.757812 4.875 -5.46875 L 4.875 -8.640625 L 5.890625 -8.640625 L 5.890625 0 L 4.9375 0 L 4.9375 -0.875 C 4.695312 -0.488281 4.40625 -0.207031 4.0625 -0.03125 C 3.726562 0.132812 3.34375 0.21875 2.90625 0.21875 C 2.207031 0.21875 1.601562 -0.0703125 1.09375 -0.65625 C 0.582031 -1.25 0.328125 -2.03125 0.328125 -3 C 0.328125 -3.914062 0.5625 -4.707031 1.03125 -5.375 C 1.5 -6.050781 2.164062 -6.390625 3.03125 -6.390625 Z M 3.03125 -6.390625 "/>
</g>
<g id="glyph-1-2">
<path d="M 1.578125 -1.671875 C 1.578125 -1.367188 1.6875 -1.128906 1.90625 -0.953125 C 2.132812 -0.773438 2.398438 -0.6875 2.703125 -0.6875 C 3.078125 -0.6875 3.4375 -0.769531 3.78125 -0.9375 C 4.375 -1.226562 4.671875 -1.695312 4.671875 -2.34375 L 4.671875 -3.1875 C 4.535156 -3.113281 4.363281 -3.046875 4.15625 -2.984375 C 3.957031 -2.929688 3.757812 -2.894531 3.5625 -2.875 L 2.9375 -2.796875 C 2.550781 -2.742188 2.257812 -2.660156 2.0625 -2.546875 C 1.738281 -2.367188 1.578125 -2.078125 1.578125 -1.671875 Z M 4.140625 -3.796875 C 4.378906 -3.828125 4.539062 -3.929688 4.625 -4.109375 C 4.664062 -4.203125 4.6875 -4.335938 4.6875 -4.515625 C 4.6875 -4.867188 4.554688 -5.125 4.296875 -5.28125 C 4.046875 -5.445312 3.6875 -5.53125 3.21875 -5.53125 C 2.664062 -5.53125 2.273438 -5.382812 2.046875 -5.09375 C 1.910156 -4.925781 1.820312 -4.679688 1.78125 -4.359375 L 0.796875 -4.359375 C 0.816406 -5.128906 1.066406 -5.664062 1.546875 -5.96875 C 2.035156 -6.269531 2.597656 -6.421875 3.234375 -6.421875 C 3.972656 -6.421875 4.570312 -6.28125 5.03125 -6 C 5.488281 -5.71875 5.71875 -5.28125 5.71875 -4.6875 L 5.71875 -1.078125 C 5.71875 -0.972656 5.738281 -0.882812 5.78125 -0.8125 C 5.832031 -0.75 5.929688 -0.71875 6.078125 -0.71875 C 6.117188 -0.71875 6.164062 -0.71875 6.21875 -0.71875 C 6.28125 -0.726562 6.347656 -0.738281 6.421875 -0.75 L 6.421875 0.03125 C 6.253906 0.0703125 6.125 0.0976562 6.03125 0.109375 C 5.945312 0.128906 5.832031 0.140625 5.6875 0.140625 C 5.320312 0.140625 5.0625 0.0078125 4.90625 -0.25 C 4.8125 -0.382812 4.75 -0.578125 4.71875 -0.828125 C 4.5 -0.546875 4.1875 -0.300781 3.78125 -0.09375 C 3.382812 0.113281 2.945312 0.21875 2.46875 0.21875 C 1.882812 0.21875 1.40625 0.0390625 1.03125 -0.3125 C 0.664062 -0.664062 0.484375 -1.109375 0.484375 -1.640625 C 0.484375 -2.222656 0.664062 -2.675781 1.03125 -3 C 1.394531 -3.320312 1.867188 -3.519531 2.453125 -3.59375 Z M 3.265625 -6.421875 Z M 3.265625 -6.421875 "/>
</g>
<g id="glyph-1-3">
<path d="M 0.984375 -8.03125 L 2.046875 -8.03125 L 2.046875 -6.28125 L 3.046875 -6.28125 L 3.046875 -5.421875 L 2.046875 -5.421875 L 2.046875 -1.3125 C 2.046875 -1.09375 2.125 -0.945312 2.28125 -0.875 C 2.351562 -0.832031 2.488281 -0.8125 2.6875 -0.8125 C 2.738281 -0.8125 2.789062 -0.8125 2.84375 -0.8125 C 2.90625 -0.820312 2.972656 -0.828125 3.046875 -0.828125 L 3.046875 0 C 2.929688 0.03125 2.804688 0.0507812 2.671875 0.0625 C 2.546875 0.0820312 2.40625 0.09375 2.25 0.09375 C 1.757812 0.09375 1.425781 -0.03125 1.25 -0.28125 C 1.070312 -0.53125 0.984375 -0.859375 0.984375 -1.265625 L 0.984375 -5.421875 L 0.140625 -5.421875 L 0.140625 -6.28125 L 0.984375 -6.28125 Z M 0.984375 -8.03125 "/>
</g>
<g id="glyph-1-4">
<path d="M 3.390625 -6.421875 C 3.835938 -6.421875 4.269531 -6.316406 4.6875 -6.109375 C 5.101562 -5.898438 5.421875 -5.628906 5.640625 -5.296875 C 5.847656 -4.972656 5.988281 -4.601562 6.0625 -4.1875 C 6.125 -3.894531 6.15625 -3.429688 6.15625 -2.796875 L 1.546875 -2.796875 C 1.566406 -2.160156 1.71875 -1.648438 2 -1.265625 C 2.28125 -0.878906 2.71875 -0.6875 3.3125 -0.6875 C 3.863281 -0.6875 4.300781 -0.867188 4.625 -1.234375 C 4.8125 -1.441406 4.945312 -1.6875 5.03125 -1.96875 L 6.0625 -1.96875 C 6.039062 -1.738281 5.953125 -1.484375 5.796875 -1.203125 C 5.640625 -0.921875 5.46875 -0.6875 5.28125 -0.5 C 4.957031 -0.1875 4.554688 0.0195312 4.078125 0.125 C 3.828125 0.1875 3.539062 0.21875 3.21875 0.21875 C 2.4375 0.21875 1.773438 -0.0625 1.234375 -0.625 C 0.691406 -1.195312 0.421875 -1.992188 0.421875 -3.015625 C 0.421875 -4.023438 0.691406 -4.84375 1.234375 -5.46875 C 1.785156 -6.101562 2.503906 -6.421875 3.390625 -6.421875 Z M 5.0625 -3.640625 C 5.019531 -4.097656 4.921875 -4.460938 4.765625 -4.734375 C 4.484375 -5.242188 4.003906 -5.5 3.328125 -5.5 C 2.835938 -5.5 2.425781 -5.320312 2.09375 -4.96875 C 1.769531 -4.625 1.597656 -4.179688 1.578125 -3.640625 Z M 3.28125 -6.421875 Z M 3.28125 -6.421875 "/>
</g>
<g id="glyph-2-0">
<path d="M 0 -0.390625 L -8.609375 -0.390625 L -8.609375 -7.21875 L 0 -7.21875 Z M -1.078125 -6.140625 L -7.53125 -6.140625 L -7.53125 -1.46875 L -1.078125 -1.46875 Z M -1.078125 -6.140625 "/>
</g>
<g id="glyph-2-1">
<path d="M -3.0625 -1.4375 C -2.394531 -1.4375 -1.832031 -1.578125 -1.375 -1.859375 C -0.925781 -2.148438 -0.703125 -2.609375 -0.703125 -3.234375 C -0.703125 -3.722656 -0.910156 -4.125 -1.328125 -4.4375 C -1.742188 -4.757812 -2.347656 -4.921875 -3.140625 -4.921875 C -3.929688 -4.921875 -4.515625 -4.753906 -4.890625 -4.421875 C -5.273438 -4.097656 -5.46875 -3.703125 -5.46875 -3.234375 C -5.46875 -2.703125 -5.265625 -2.269531 -4.859375 -1.9375 C -4.453125 -1.601562 -3.851562 -1.4375 -3.0625 -1.4375 Z M -6.390625 -3.03125 C -6.390625 -3.507812 -6.285156 -3.910156 -6.078125 -4.234375 C -5.960938 -4.421875 -5.757812 -4.632812 -5.46875 -4.875 L -8.640625 -4.875 L -8.640625 -5.890625 L 0 -5.890625 L 0 -4.9375 L -0.875 -4.9375 C -0.488281 -4.695312 -0.207031 -4.40625 -0.03125 -4.0625 C 0.132812 -3.726562 0.21875 -3.34375 0.21875 -2.90625 C 0.21875 -2.207031 -0.0703125 -1.601562 -0.65625 -1.09375 C -1.25 -0.582031 -2.03125 -0.328125 -3 -0.328125 C -3.914062 -0.328125 -4.707031 -0.5625 -5.375 -1.03125 C -6.050781 -1.5 -6.390625 -2.164062 -6.390625 -3.03125 Z M -6.390625 -3.03125 "/>
</g>
<g id="glyph-2-2">
<path d="M -1.671875 -1.578125 C -1.367188 -1.578125 -1.128906 -1.6875 -0.953125 -1.90625 C -0.773438 -2.132812 -0.6875 -2.398438 -0.6875 -2.703125 C -0.6875 -3.078125 -0.769531 -3.4375 -0.9375 -3.78125 C -1.226562 -4.375 -1.695312 -4.671875 -2.34375 -4.671875 L -3.1875 -4.671875 C -3.113281 -4.535156 -3.046875 -4.363281 -2.984375 -4.15625 C -2.929688 -3.957031 -2.894531 -3.757812 -2.875 -3.5625 L -2.796875 -2.9375 C -2.742188 -2.550781 -2.660156 -2.257812 -2.546875 -2.0625 C -2.367188 -1.738281 -2.078125 -1.578125 -1.671875 -1.578125 Z M -3.796875 -4.140625 C -3.828125 -4.378906 -3.929688 -4.539062 -4.109375 -4.625 C -4.203125 -4.664062 -4.335938 -4.6875 -4.515625 -4.6875 C -4.867188 -4.6875 -5.125 -4.554688 -5.28125 -4.296875 C -5.445312 -4.046875 -5.53125 -3.6875 -5.53125 -3.21875 C -5.53125 -2.664062 -5.382812 -2.273438 -5.09375 -2.046875 C -4.925781 -1.910156 -4.679688 -1.820312 -4.359375 -1.78125 L -4.359375 -0.796875 C -5.128906 -0.816406 -5.664062 -1.066406 -5.96875 -1.546875 C -6.269531 -2.035156 -6.421875 -2.597656 -6.421875 -3.234375 C -6.421875 -3.972656 -6.28125 -4.570312 -6 -5.03125 C -5.71875 -5.488281 -5.28125 -5.71875 -4.6875 -5.71875 L -1.078125 -5.71875 C -0.972656 -5.71875 -0.882812 -5.738281 -0.8125 -5.78125 C -0.75 -5.832031 -0.71875 -5.929688 -0.71875 -6.078125 C -0.71875 -6.117188 -0.71875 -6.164062 -0.71875 -6.21875 C -0.726562 -6.28125 -0.738281 -6.347656 -0.75 -6.421875 L 0.03125 -6.421875 C 0.0703125 -6.253906 0.0976562 -6.125 0.109375 -6.03125 C 0.128906 -5.945312 0.140625 -5.832031 0.140625 -5.6875 C 0.140625 -5.320312 0.0078125 -5.0625 -0.25 -4.90625 C -0.382812 -4.8125 -0.578125 -4.75 -0.828125 -4.71875 C -0.546875 -4.5 -0.300781 -4.1875 -0.09375 -3.78125 C 0.113281 -3.382812 0.21875 -2.945312 0.21875 -2.46875 C 0.21875 -1.882812 0.0390625 -1.40625 -0.3125 -1.03125 C -0.664062 -0.664062 -1.109375 -0.484375 -1.640625 -0.484375 C -2.222656 -0.484375 -2.675781 -0.664062 -3 -1.03125 C -3.320312 -1.394531 -3.519531 -1.867188 -3.59375 -2.453125 Z M -6.421875 -3.265625 Z M -6.421875 -3.265625 "/>
</g>
<g id="glyph-2-3">
<path d="M -6.25 -0.78125 L -6.25 -1.84375 L 0 -1.84375 L 0 -0.78125 Z M -8.609375 -0.78125 L -8.609375 -1.84375 L -7.40625 -1.84375 L -7.40625 -0.78125 Z M -8.609375 -0.78125 "/>
</g>
<g id="glyph-2-4">
<path d="M -8.609375 -0.796875 L -8.609375 -1.859375 L 0 -1.859375 L 0 -0.796875 Z M -8.609375 -0.796875 "/>
</g>
<g id="glyph-2-5">
<path d="M -6.28125 -4.6875 L -6.28125 -5.859375 C -5.875 -5.710938 -4.953125 -5.382812 -3.515625 -4.875 C -2.441406 -4.488281 -1.566406 -4.164062 -0.890625 -3.90625 C 0.710938 -3.300781 1.691406 -2.875 2.046875 -2.625 C 2.398438 -2.375 2.578125 -1.941406 2.578125 -1.328125 C 2.578125 -1.179688 2.566406 -1.066406 2.546875 -0.984375 C 2.535156 -0.910156 2.515625 -0.8125 2.484375 -0.6875 L 1.53125 -0.6875 C 1.582031 -0.875 1.613281 -1.007812 1.625 -1.09375 C 1.632812 -1.175781 1.640625 -1.25 1.640625 -1.3125 C 1.640625 -1.5 1.609375 -1.640625 1.546875 -1.734375 C 1.484375 -1.828125 1.40625 -1.90625 1.3125 -1.96875 C 1.28125 -1.988281 1.117188 -2.054688 0.828125 -2.171875 C 0.535156 -2.296875 0.320312 -2.382812 0.1875 -2.4375 L -6.28125 -0.125 L -6.28125 -1.3125 L -1.171875 -3 Z M -6.421875 -3 Z M -6.421875 -3 "/>
</g>
<g id="glyph-2-6">
<path d="M 1.5 0 L 0.90625 0 L 0.90625 -6.671875 L 1.5 -6.671875 Z M 1.5 0 "/>
</g>
<g id="glyph-2-7">
<path d="M -6.453125 -3.1875 C -6.453125 -3.894531 -6.28125 -4.46875 -5.9375 -4.90625 C -5.59375 -5.351562 -5.003906 -5.625 -4.171875 -5.71875 L -4.171875 -4.6875 C -4.554688 -4.625 -4.875 -4.484375 -5.125 -4.265625 C -5.382812 -4.046875 -5.515625 -3.6875 -5.515625 -3.1875 C -5.515625 -2.519531 -5.1875 -2.039062 -4.53125 -1.75 C -4.101562 -1.5625 -3.578125 -1.46875 -2.953125 -1.46875 C -2.328125 -1.46875 -1.796875 -1.597656 -1.359375 -1.859375 C -0.929688 -2.128906 -0.71875 -2.550781 -0.71875 -3.125 C -0.71875 -3.5625 -0.851562 -3.90625 -1.125 -4.15625 C -1.394531 -4.414062 -1.757812 -4.59375 -2.21875 -4.6875 L -2.21875 -5.71875 C -1.382812 -5.601562 -0.773438 -5.3125 -0.390625 -4.84375 C -0.00390625 -4.375 0.1875 -3.773438 0.1875 -3.046875 C 0.1875 -2.222656 -0.113281 -1.566406 -0.71875 -1.078125 C -1.320312 -0.585938 -2.070312 -0.34375 -2.96875 -0.34375 C -4.070312 -0.34375 -4.925781 -0.609375 -5.53125 -1.140625 C -6.144531 -1.679688 -6.453125 -2.363281 -6.453125 -3.1875 Z M -6.421875 -3.03125 Z M -6.421875 -3.03125 "/>
</g>
<g id="glyph-2-8">
<path d="M -1.96875 -1.40625 C -1.613281 -1.4375 -1.34375 -1.523438 -1.15625 -1.671875 C -0.820312 -1.929688 -0.65625 -2.390625 -0.65625 -3.046875 C -0.65625 -3.441406 -0.738281 -3.785156 -0.90625 -4.078125 C -1.070312 -4.378906 -1.332031 -4.53125 -1.6875 -4.53125 C -1.957031 -4.53125 -2.164062 -4.410156 -2.3125 -4.171875 C -2.394531 -4.015625 -2.492188 -3.710938 -2.609375 -3.265625 L -2.8125 -2.421875 C -2.945312 -1.890625 -3.097656 -1.5 -3.265625 -1.25 C -3.546875 -0.789062 -3.941406 -0.5625 -4.453125 -0.5625 C -5.046875 -0.5625 -5.523438 -0.773438 -5.890625 -1.203125 C -6.253906 -1.628906 -6.4375 -2.207031 -6.4375 -2.9375 C -6.4375 -3.875 -6.160156 -4.550781 -5.609375 -4.96875 C -5.253906 -5.238281 -4.875 -5.367188 -4.46875 -5.359375 L -4.46875 -4.359375 C -4.707031 -4.335938 -4.925781 -4.253906 -5.125 -4.109375 C -5.394531 -3.867188 -5.53125 -3.445312 -5.53125 -2.84375 C -5.53125 -2.445312 -5.453125 -2.144531 -5.296875 -1.9375 C -5.148438 -1.738281 -4.953125 -1.640625 -4.703125 -1.640625 C -4.429688 -1.640625 -4.210938 -1.773438 -4.046875 -2.046875 C -3.953125 -2.203125 -3.867188 -2.429688 -3.796875 -2.734375 L -3.625 -3.421875 C -3.4375 -4.179688 -3.257812 -4.691406 -3.09375 -4.953125 C -2.820312 -5.359375 -2.394531 -5.5625 -1.8125 -5.5625 C -1.257812 -5.5625 -0.78125 -5.347656 -0.375 -4.921875 C 0.03125 -4.503906 0.234375 -3.863281 0.234375 -3 C 0.234375 -2.0625 0.0234375 -1.394531 -0.390625 -1 C -0.816406 -0.613281 -1.34375 -0.410156 -1.96875 -0.390625 Z M -6.421875 -2.953125 Z M -6.421875 -2.953125 "/>
</g>
<g id="glyph-2-9">
<path d="M -6.421875 -3.390625 C -6.421875 -3.835938 -6.316406 -4.269531 -6.109375 -4.6875 C -5.898438 -5.101562 -5.628906 -5.421875 -5.296875 -5.640625 C -4.972656 -5.847656 -4.601562 -5.988281 -4.1875 -6.0625 C -3.894531 -6.125 -3.429688 -6.15625 -2.796875 -6.15625 L -2.796875 -1.546875 C -2.160156 -1.566406 -1.648438 -1.71875 -1.265625 -2 C -0.878906 -2.28125 -0.6875 -2.71875 -0.6875 -3.3125 C -0.6875 -3.863281 -0.867188 -4.300781 -1.234375 -4.625 C -1.441406 -4.8125 -1.6875 -4.945312 -1.96875 -5.03125 L -1.96875 -6.0625 C -1.738281 -6.039062 -1.484375 -5.953125 -1.203125 -5.796875 C -0.921875 -5.640625 -0.6875 -5.46875 -0.5 -5.28125 C -0.1875 -4.957031 0.0195312 -4.554688 0.125 -4.078125 C 0.1875 -3.828125 0.21875 -3.539062 0.21875 -3.21875 C 0.21875 -2.4375 -0.0625 -1.773438 -0.625 -1.234375 C -1.195312 -0.691406 -1.992188 -0.421875 -3.015625 -0.421875 C -4.023438 -0.421875 -4.84375 -0.691406 -5.46875 -1.234375 C -6.101562 -1.785156 -6.421875 -2.503906 -6.421875 -3.390625 Z M -3.640625 -5.0625 C -4.097656 -5.019531 -4.460938 -4.921875 -4.734375 -4.765625 C -5.242188 -4.484375 -5.5 -4.003906 -5.5 -3.328125 C -5.5 -2.835938 -5.320312 -2.425781 -4.96875 -2.09375 C -4.625 -1.769531 -4.179688 -1.597656 -3.640625 -1.578125 Z M -6.421875 -3.28125 Z M -6.421875 -3.28125 "/>
</g>
</g>
<clipPath id="clip-0">
<path clip-rule="nonzero" d="M 46.347656 253 L 498.023438 253 L 498.023438 255 L 46.347656 255 Z M 46.347656 253 "/>
</clipPath>
<clipPath id="clip-1">
<path clip-rule="nonzero" d="M 46.347656 170 L 498.023438 170 L 498.023438 172 L 46.347656 172 Z M 46.347656 170 "/>
</clipPath>
<clipPath id="clip-2">
<path clip-rule="nonzero" d="M 46.347656 87 L 498.023438 87 L 498.023438 89 L 46.347656 89 Z M 46.347656 87 "/>
</clipPath>
<clipPath id="clip-3">
<path clip-rule="nonzero" d="M 150 5.976562 L 151 5.976562 L 151 265.652344 L 150 265.652344 Z M 150 5.976562 "/>
</clipPath>
<clipPath id="clip-4">
<path clip-rule="nonzero" d="M 258 5.976562 L 260 5.976562 L 260 265.652344 L 258 265.652344 Z M 258 5.976562 "/>
</clipPath>
<clipPath id="clip-5">
<path clip-rule="nonzero" d="M 368 5.976562 L 370 5.976562 L 370 265.652344 L 368 265.652344 Z M 368 5.976562 "/>
</clipPath>
<clipPath id="clip-6">
<path clip-rule="nonzero" d="M 478 5.976562 L 480 5.976562 L 480 265.652344 L 478 265.652344 Z M 478 5.976562 "/>
</clipPath>
</defs>
<rect x="-50.4" y="-30.2" width="604.8" height="362.4" fill="rgb(100%, 100%, 100%)" fill-opacity="1"/>
<rect x="-50.4" y="-30.2" width="604.8" height="362.4" fill="rgb(100%, 100%, 100%)" fill-opacity="1"/>
<g clip-path="url(#clip-0)">
<path fill="none" stroke-width="0.640187" stroke-linecap="butt" stroke-linejoin="round" stroke="rgb(86.666667%, 89.019608%, 91.764706%)" stroke-opacity="1" stroke-miterlimit="10" d="M 46.347656 253.851562 L 498.023438 253.851562 "/>
</g>
<g clip-path="url(#clip-1)">
<path fill="none" stroke-width="0.640187" stroke-linecap="butt" stroke-linejoin="round" stroke="rgb(86.666667%, 89.019608%, 91.764706%)" stroke-opacity="1" stroke-miterlimit="10" d="M 46.347656 171.078125 L 498.023438 171.078125 "/>
</g>
<g clip-path="url(#clip-2)">
<path fill="none" stroke-width="0.640187" stroke-linecap="butt" stroke-linejoin="round" stroke="rgb(86.666667%, 89.019608%, 91.764706%)" stroke-opacity="1" stroke-miterlimit="10" d="M 46.347656 88.304688 L 498.023438 88.304688 "/>
</g>
<g clip-path="url(#clip-3)">
<path fill="none" stroke-width="0.640187" stroke-linecap="butt" stroke-linejoin="round" stroke="rgb(86.666667%, 89.019608%, 91.764706%)" stroke-opacity="1" stroke-miterlimit="10" d="M 150.433594 265.652344 L 150.433594 5.976562 "/>
</g>
<g clip-path="url(#clip-4)">
<path fill="none" stroke-width="0.640187" stroke-linecap="butt" stroke-linejoin="round" stroke="rgb(86.666667%, 89.019608%, 91.764706%)" stroke-opacity="1" stroke-miterlimit="10" d="M 259.054688 265.652344 L 259.054688 5.976562 "/>
</g>
<g clip-path="url(#clip-5)">
<path fill="none" stroke-width="0.640187" stroke-linecap="butt" stroke-linejoin="round" stroke="rgb(86.666667%, 89.019608%, 91.764706%)" stroke-opacity="1" stroke-miterlimit="10" d="M 368.871094 265.652344 L 368.871094 5.976562 "/>
</g>
<g clip-path="url(#clip-6)">
<path fill="none" stroke-width="0.640187" stroke-linecap="butt" stroke-linejoin="round" stroke="rgb(86.666667%, 89.019608%, 91.764706%)" stroke-opacity="1" stroke-miterlimit="10" d="M 478.683594 265.652344 L 478.683594 5.976562 "/>
</g>
<path fill="none" stroke-width="1.49377" stroke-linecap="butt" stroke-linejoin="round" stroke="rgb(0%, 23.921569%, 48.627451%)" stroke-opacity="1" stroke-miterlimit="10" d="M 66.875 253.851562 L 68.070312 253.683594 L 69.265625 253.519531 L 70.457031 253.851562 L 71.652344 253.683594 L 72.84375 253.683594 L 74.039062 253.519531 L 75.234375 253.851562 L 76.425781 253.355469 L 78.8125 253.355469 L 80.007812 253.519531 L 81.199219 253.851562 L 82.394531 252.855469 L 83.589844 253.1875 L 84.78125 253.851562 L 85.976562 253.519531 L 87.167969 253.355469 L 88.363281 252.691406 L 89.554688 253.023438 L 90.75 253.519531 L 91.945312 253.355469 L 93.136719 252.527344 L 94.332031 252.359375 L 95.523438 253.023438 L 96.71875 253.355469 L 97.910156 253.519531 L 99.105469 253.1875 L 100.300781 253.355469 L 101.492188 253.851562 L 102.6875 253.683594 L 103.878906 253.851562 L 105.074219 253.1875 L 106.265625 253.851562 L 107.460938 253.519531 L 108.65625 253.519531 L 109.847656 253.851562 L 111.042969 253.851562 L 112.234375 252.359375 L 113.429688 253.1875 L 114.621094 253.519531 L 115.816406 253.519531 L 117.011719 253.851562 L 118.203125 252.691406 L 119.398438 251.699219 L 120.589844 252.527344 L 121.785156 251.863281 L 122.976562 253.851562 L 124.171875 252.195312 L 125.367188 250.871094 L 126.558594 253.851562 L 127.753906 250.207031 L 128.945312 251.863281 L 130.140625 251.53125 L 131.332031 251.035156 L 132.527344 250.042969 L 133.722656 246.070312 L 134.914062 248.554688 L 136.109375 247.226562 L 137.300781 246.070312 L 138.496094 250.042969 L 139.6875 244.910156 L 140.882812 245.738281 L 142.078125 241.765625 L 143.269531 245.242188 L 144.464844 245.738281 L 145.65625 242.261719 L 146.851562 246.898438 L 148.046875 248.054688 L 149.238281 246.070312 L 150.433594 241.601562 L 151.625 245.738281 L 152.820312 243.089844 L 154.011719 241.433594 L 155.207031 233.984375 L 156.402344 242.925781 L 157.59375 236.300781 L 158.789062 230.34375 L 159.980469 206.339844 L 161.175781 221.070312 L 162.367188 222.230469 L 163.5625 215.277344 L 164.757812 189.949219 L 165.949219 198.558594 L 167.144531 179.851562 L 168.335938 133.332031 L 169.53125 150.714844 L 170.722656 97.90625 L 171.917969 155.183594 L 173.113281 17.78125 L 174.304688 69.929688 L 175.5 85.65625 L 176.691406 82.179688 L 177.886719 105.355469 L 179.078125 151.542969 L 180.273438 99.726562 L 181.46875 121.578125 L 182.660156 166.441406 L 183.855469 139.625 L 185.046875 166.441406 L 186.242188 99.5625 L 187.433594 179.851562 L 188.628906 145.085938 L 189.824219 158.992188 L 191.015625 149.226562 L 192.210938 123.398438 L 193.402344 131.179688 L 194.597656 126.710938 L 195.789062 129.195312 L 196.984375 108.832031 L 198.179688 173.394531 L 199.371094 113.300781 L 200.566406 142.105469 L 201.757812 129.359375 L 202.953125 122.570312 L 204.144531 176.871094 L 205.339844 140.949219 L 206.535156 203.359375 L 207.726562 179.1875 L 208.921875 159.488281 L 210.113281 179.683594 L 211.308594 152.203125 L 212.5 147.570312 L 213.695312 163.132812 L 214.890625 196.902344 L 216.082031 190.445312 L 217.277344 165.613281 L 218.46875 192.101562 L 219.664062 152.703125 L 220.859375 170.082031 L 222.050781 168.097656 L 223.246094 186.308594 L 224.4375 163.792969 L 225.632812 159.65625 L 226.824219 168.261719 L 228.019531 210.644531 L 229.214844 196.902344 L 230.40625 190.445312 L 231.601562 189.949219 L 232.792969 217.761719 L 233.988281 179.1875 L 235.179688 183.988281 L 236.375 177.203125 L 237.570312 196.40625 L 238.761719 186.472656 L 239.957031 218.421875 L 241.148438 228.851562 L 242.34375 212.960938 L 243.535156 211.304688 L 244.730469 230.34375 L 245.925781 217.761719 L 247.117188 210.476562 L 248.3125 217.761719 L 249.503906 234.148438 L 250.699219 222.230469 L 251.890625 235.144531 L 253.085938 217.59375 L 254.28125 205.675781 L 255.472656 218.589844 L 256.667969 220.410156 L 257.859375 213.125 L 259.054688 218.257812 L 260.246094 222.726562 L 261.441406 225.871094 L 262.636719 223.222656 L 263.828125 231.335938 L 265.023438 223.554688 L 266.214844 227.859375 L 267.410156 227.695312 L 268.601562 233.15625 L 269.796875 222.230469 L 270.992188 225.871094 L 272.183594 224.382812 L 273.378906 200.542969 L 274.570312 196.40625 L 275.765625 212.792969 L 276.957031 212.792969 L 278.152344 199.714844 L 279.347656 220.410156 L 280.539062 211.304688 L 281.734375 233.488281 L 282.925781 187.796875 L 284.121094 202.53125 L 285.3125 195.246094 L 286.507812 207.992188 L 287.703125 168.925781 L 288.894531 174.222656 L 290.089844 176.210938 L 291.28125 194.417969 L 292.476562 198.558594 L 293.671875 207.828125 L 294.863281 188.292969 L 296.058594 203.027344 L 297.25 202.035156 L 298.445312 216.4375 L 299.636719 205.015625 L 300.832031 103.535156 L 302.027344 204.019531 L 303.21875 213.789062 L 304.414062 232 L 305.605469 224.878906 L 306.800781 222.726562 L 307.992188 243.753906 L 309.1875 246.898438 L 310.382812 236.964844 L 311.574219 240.109375 L 312.769531 240.441406 L 313.960938 239.613281 L 315.15625 238.785156 L 316.347656 237.296875 L 317.542969 238.453125 L 318.738281 242.59375 L 319.929688 234.480469 L 321.125 245.574219 L 322.316406 239.449219 L 323.511719 245.40625 L 324.703125 248.71875 L 325.898438 243.917969 L 327.09375 241.101562 L 328.285156 238.289062 L 329.480469 245.40625 L 330.671875 244.910156 L 331.867188 247.0625 L 333.058594 247.226562 L 334.253906 252.527344 L 335.449219 245.902344 L 336.640625 247.226562 L 337.835938 248.222656 L 339.027344 247.226562 L 340.222656 250.207031 L 341.414062 246.070312 L 342.609375 241.433594 L 343.804688 243.421875 L 344.996094 239.613281 L 346.191406 246.898438 L 347.382812 245.738281 L 348.578125 245.902344 L 349.769531 248.222656 L 352.160156 250.871094 L 353.351562 252.03125 L 354.546875 251.367188 L 355.738281 250.871094 L 356.933594 248.882812 L 358.125 250.375 L 359.320312 251.863281 L 360.515625 251.367188 L 361.707031 252.03125 L 362.902344 250.539062 L 364.09375 251.367188 L 365.289062 251.367188 L 366.484375 249.378906 L 367.675781 250.042969 L 368.871094 250.703125 L 370.0625 252.195312 L 371.257812 252.855469 L 372.449219 251.863281 L 373.644531 252.691406 L 374.839844 252.03125 L 376.03125 252.195312 L 377.226562 252.359375 L 378.417969 252.195312 L 379.613281 252.691406 L 380.804688 252.195312 L 382 253.1875 L 383.195312 253.1875 L 384.386719 253.023438 L 385.582031 253.355469 L 386.773438 252.359375 L 387.96875 253.355469 L 389.160156 252.691406 L 390.355469 253.1875 L 391.550781 252.855469 L 392.742188 251.863281 L 393.9375 252.527344 L 395.128906 252.195312 L 396.324219 251.53125 L 397.515625 253.023438 L 398.710938 253.355469 L 399.90625 252.691406 L 402.292969 252.691406 L 403.484375 252.359375 L 404.679688 251.863281 L 405.871094 253.1875 L 407.066406 253.683594 L 408.261719 252.359375 L 409.453125 252.691406 L 410.648438 252.691406 L 411.839844 253.1875 L 413.035156 252.691406 L 414.226562 253.519531 L 415.421875 252.527344 L 416.617188 252.359375 L 417.808594 250.871094 L 419.003906 252.03125 L 420.195312 251.863281 L 421.390625 253.519531 L 422.582031 253.355469 L 423.777344 253.023438 L 424.972656 252.855469 L 426.164062 253.023438 L 427.359375 253.1875 L 428.550781 253.1875 L 429.746094 253.023438 L 430.9375 251.863281 L 432.132812 253.023438 L 433.328125 250.871094 L 434.519531 252.691406 L 435.714844 253.023438 L 436.90625 253.1875 L 438.101562 252.855469 L 439.296875 252.527344 L 440.488281 253.023438 L 441.683594 252.195312 L 442.875 253.519531 L 444.070312 252.359375 L 445.261719 253.355469 L 446.457031 251.699219 L 447.652344 253.023438 L 448.84375 251.699219 L 450.039062 251.863281 L 451.230469 252.855469 L 452.425781 252.855469 L 453.617188 252.527344 L 454.8125 252.527344 L 456.007812 252.691406 L 457.199219 253.023438 L 458.394531 251.203125 L 459.585938 251.863281 L 460.78125 249.878906 L 461.972656 252.359375 L 463.167969 251.035156 L 464.363281 250.703125 L 465.554688 252.195312 L 466.75 249.050781 L 467.941406 250.375 L 469.136719 251.699219 L 470.328125 251.53125 L 471.523438 252.195312 L 472.71875 253.023438 L 473.910156 253.023438 L 475.105469 251.699219 L 476.296875 249.378906 L 477.492188 248.882812 "/>
<g fill="rgb(35.294118%, 40%, 44.705882%)" fill-opacity="1">
<use xlink:href="#glyph-0-1" x="35.964844" y="256.743164"/>
</g>
<g fill="rgb(35.294118%, 40%, 44.705882%)" fill-opacity="1">
<use xlink:href="#glyph-0-2" x="25.964844" y="173.969727"/>
<use xlink:href="#glyph-0-1" x="30.964844" y="173.969727"/>
<use xlink:href="#glyph-0-1" x="35.964844" y="173.969727"/>
</g>
<g fill="rgb(35.294118%, 40%, 44.705882%)" fill-opacity="1">
<use xlink:href="#glyph-0-3" x="20.964844" y="91.196289"/>
<use xlink:href="#glyph-0-1" x="25.964844" y="91.196289"/>
<use xlink:href="#glyph-0-1" x="30.964844" y="91.196289"/>
<use xlink:href="#glyph-0-1" x="35.964844" y="91.196289"/>
</g>
<g fill="rgb(35.294118%, 40%, 44.705882%)" fill-opacity="1">
<use xlink:href="#glyph-0-4" x="131.933594" y="277.426758"/>
<use xlink:href="#glyph-0-5" x="137.933594" y="277.426758"/>
<use xlink:href="#glyph-0-6" x="142.933594" y="277.426758"/>
<use xlink:href="#glyph-0-7" x="145.933594" y="277.426758"/>
<use xlink:href="#glyph-0-8" x="148.933594" y="277.426758"/>
<use xlink:href="#glyph-0-1" x="153.933594" y="277.426758"/>
<use xlink:href="#glyph-0-8" x="158.933594" y="277.426758"/>
<use xlink:href="#glyph-0-1" x="163.933594" y="277.426758"/>
</g>
<g fill="rgb(35.294118%, 40%, 44.705882%)" fill-opacity="1">
<use xlink:href="#glyph-0-9" x="241.554688" y="277.426758"/>
<use xlink:href="#glyph-0-10" x="246.554688" y="277.426758"/>
<use xlink:href="#glyph-0-11" x="251.554688" y="277.426758"/>
<use xlink:href="#glyph-0-7" x="253.554688" y="277.426758"/>
<use xlink:href="#glyph-0-8" x="256.554688" y="277.426758"/>
<use xlink:href="#glyph-0-1" x="261.554688" y="277.426758"/>
<use xlink:href="#glyph-0-8" x="266.554688" y="277.426758"/>
<use xlink:href="#glyph-0-1" x="271.554688" y="277.426758"/>
</g>
<g fill="rgb(35.294118%, 40%, 44.705882%)" fill-opacity="1">
<use xlink:href="#glyph-0-12" x="349.871094" y="277.426758"/>
<use xlink:href="#glyph-0-13" x="356.871094" y="277.426758"/>
<use xlink:href="#glyph-0-14" x="361.871094" y="277.426758"/>
<use xlink:href="#glyph-0-7" x="364.871094" y="277.426758"/>
<use xlink:href="#glyph-0-8" x="367.871094" y="277.426758"/>
<use xlink:href="#glyph-0-1" x="372.871094" y="277.426758"/>
<use xlink:href="#glyph-0-8" x="377.871094" y="277.426758"/>
<use xlink:href="#glyph-0-1" x="382.871094" y="277.426758"/>
</g>
<g fill="rgb(35.294118%, 40%, 44.705882%)" fill-opacity="1">
<use xlink:href="#glyph-0-9" x="459.683594" y="277.426758"/>
<use xlink:href="#glyph-0-15" x="464.683594" y="277.426758"/>
<use xlink:href="#glyph-0-16" x="469.683594" y="277.426758"/>
<use xlink:href="#glyph-0-7" x="474.683594" y="277.426758"/>
<use xlink:href="#glyph-0-8" x="477.683594" y="277.426758"/>
<use xlink:href="#glyph-0-1" x="482.683594" y="277.426758"/>
<use xlink:href="#glyph-0-8" x="487.683594" y="277.426758"/>
<use xlink:href="#glyph-0-3" x="492.683594" y="277.426758"/>
</g>
<g fill="rgb(35.294118%, 40%, 44.705882%)" fill-opacity="1">
<use xlink:href="#glyph-1-1" x="260.183594" y="292.263672"/>
<use xlink:href="#glyph-1-2" x="267.183594" y="292.263672"/>
<use xlink:href="#glyph-1-3" x="274.183594" y="292.263672"/>
<use xlink:href="#glyph-1-4" x="277.183594" y="292.263672"/>
</g>
<g fill="rgb(35.294118%, 40%, 44.705882%)" fill-opacity="1">
<use xlink:href="#glyph-2-1" x="14.216797" y="168.316406"/>
<use xlink:href="#glyph-2-2" x="14.216797" y="161.316406"/>
<use xlink:href="#glyph-2-3" x="14.216797" y="154.316406"/>
<use xlink:href="#glyph-2-4" x="14.216797" y="151.316406"/>
<use xlink:href="#glyph-2-5" x="14.216797" y="148.316406"/>
<use xlink:href="#glyph-2-6" x="14.216797" y="142.316406"/>
<use xlink:href="#glyph-2-7" x="14.216797" y="135.316406"/>
<use xlink:href="#glyph-2-2" x="14.216797" y="129.316406"/>
<use xlink:href="#glyph-2-8" x="14.216797" y="122.316406"/>
<use xlink:href="#glyph-2-9" x="14.216797" y="116.316406"/>
<use xlink:href="#glyph-2-8" x="14.216797" y="109.316406"/>
</g>
</svg>
