<?xml version="1.0" encoding="UTF-8"?>
<svg xmlns="http://www.w3.org/2000/svg" xmlns:xlink="http://www.w3.org/1999/xlink" width="504" height="302" viewBox="0 0 504 302">
<defs>
<g>
<g id="glyph-0-0">
<path d="M 0.3125 0 L 0.3125 -6.875 L 5.765625 -6.875 L 5.765625 0 Z M 4.90625 -0.859375 L 4.90625 -6.015625 L 1.171875 -6.015625 L 1.171875 -0.859375 Z M 4.90625 -0.859375 "/>
</g>
<g id="glyph-0-1">
<path d="M 0.921875 -4.75 L 0.921875 -5.390625 C 1.523438 -5.453125 1.945312 -5.550781 2.1875 -5.6875 C 2.425781 -5.832031 2.609375 -6.164062 2.734375 -6.6875 L 3.390625 -6.6875 L 3.390625 0 L 2.5 0 L 2.5 -4.75 Z M 0.921875 -4.75 "/>
</g>
<g id="glyph-0-2">
<path d="M 2.59375 -6.703125 C 3.457031 -6.703125 4.085938 -6.347656 4.484375 -5.640625 C 4.773438 -5.085938 4.921875 -4.328125 4.921875 -3.359375 C 4.921875 -2.453125 4.785156 -1.695312 4.515625 -1.09375 C 4.128906 -0.238281 3.488281 0.1875 2.59375 0.1875 C 1.78125 0.1875 1.179688 -0.160156 0.796875 -0.859375 C 0.460938 -1.453125 0.296875 -2.238281 0.296875 -3.21875 C 0.296875 -3.976562 0.394531 -4.632812 0.59375 -5.1875 C 0.957031 -6.195312 1.625 -6.703125 2.59375 -6.703125 Z M 2.578125 -0.578125 C 3.015625 -0.578125 3.363281 -0.769531 3.625 -1.15625 C 3.882812 -1.550781 4.015625 -2.273438 4.015625 -3.328125 C 4.015625 -4.085938 3.921875 -4.710938 3.734375 -5.203125 C 3.546875 -5.703125 3.179688 -5.953125 2.640625 -5.953125 C 2.148438 -5.953125 1.789062 -5.71875 1.5625 -5.25 C 1.332031 -4.78125 1.21875 -4.09375 1.21875 -3.1875 C 1.21875 -2.5 1.289062 -1.945312 1.4375 -1.53125 C 1.65625 -0.894531 2.035156 -0.578125 2.578125 -0.578125 Z M 2.578125 -0.578125 "/>
</g>
<g id="glyph-0-3">
<path d="M 0.703125 -6.875 L 2.046875 -6.875 L 4.015625 -1.0625 L 5.984375 -6.875 L 7.296875 -6.875 L 7.296875 0 L 6.421875 0 L 6.421875 -4.0625 C 6.421875 -4.195312 6.421875 -4.425781 6.421875 -4.75 C 6.429688 -5.082031 6.4375 -5.429688 6.4375 -5.796875 L 4.46875 0 L 3.546875 0 L 1.578125 -5.796875 L 1.578125 -5.59375 C 1.578125 -5.425781 1.578125 -5.171875 1.578125 -4.828125 C 1.585938 -4.484375 1.59375 -4.226562 1.59375 -4.0625 L 1.59375 0 L 0.703125 0 Z M 0.703125 -6.875 "/>
</g>
<g id="glyph-0-4">
<path d="M 1.265625 -1.328125 C 1.265625 -1.085938 1.351562 -0.894531 1.53125 -0.75 C 1.707031 -0.613281 1.921875 -0.546875 2.171875 -0.546875 C 2.460938 -0.546875 2.75 -0.613281 3.03125 -0.75 C 3.5 -0.976562 3.734375 -1.351562 3.734375 -1.875 L 3.734375 -2.546875 C 3.628906 -2.484375 3.492188 -2.429688 3.328125 -2.390625 C 3.171875 -2.347656 3.015625 -2.316406 2.859375 -2.296875 L 2.34375 -2.234375 C 2.039062 -2.191406 1.8125 -2.125 1.65625 -2.03125 C 1.394531 -1.882812 1.265625 -1.648438 1.265625 -1.328125 Z M 3.3125 -3.046875 C 3.5 -3.066406 3.628906 -3.144531 3.703125 -3.28125 C 3.734375 -3.351562 3.75 -3.460938 3.75 -3.609375 C 3.75 -3.890625 3.644531 -4.09375 3.4375 -4.21875 C 3.238281 -4.351562 2.945312 -4.421875 2.5625 -4.421875 C 2.125 -4.421875 1.8125 -4.304688 1.625 -4.078125 C 1.519531 -3.941406 1.453125 -3.742188 1.421875 -3.484375 L 0.640625 -3.484375 C 0.660156 -4.097656 0.863281 -4.523438 1.25 -4.765625 C 1.632812 -5.015625 2.078125 -5.140625 2.578125 -5.140625 C 3.171875 -5.140625 3.65625 -5.023438 4.03125 -4.796875 C 4.394531 -4.578125 4.578125 -4.226562 4.578125 -3.75 L 4.578125 -0.859375 C 4.578125 -0.773438 4.59375 -0.707031 4.625 -0.65625 C 4.664062 -0.601562 4.742188 -0.578125 4.859375 -0.578125 C 4.890625 -0.578125 4.925781 -0.578125 4.96875 -0.578125 C 5.019531 -0.578125 5.070312 -0.582031 5.125 -0.59375 L 5.125 0.015625 C 5 0.0546875 4.898438 0.0820312 4.828125 0.09375 C 4.765625 0.101562 4.671875 0.109375 4.546875 0.109375 C 4.253906 0.109375 4.046875 0.00390625 3.921875 -0.203125 C 3.847656 -0.304688 3.796875 -0.460938 3.765625 -0.671875 C 3.597656 -0.441406 3.351562 -0.242188 3.03125 -0.078125 C 2.707031 0.0859375 2.351562 0.171875 1.96875 0.171875 C 1.5 0.171875 1.117188 0.03125 0.828125 -0.25 C 0.535156 -0.53125 0.390625 -0.882812 0.390625 -1.3125 C 0.390625 -1.78125 0.53125 -2.140625 0.8125 -2.390625 C 1.101562 -2.648438 1.488281 -2.8125 1.96875 -2.875 Z M 2.609375 -5.140625 Z M 2.609375 -5.140625 "/>
</g>
<g id="glyph-0-5">
<path d="M 0.640625 -5.015625 L 1.4375 -5.015625 L 1.4375 -4.15625 C 1.507812 -4.320312 1.671875 -4.523438 1.921875 -4.765625 C 2.179688 -5.003906 2.476562 -5.125 2.8125 -5.125 C 2.820312 -5.125 2.847656 -5.125 2.890625 -5.125 C 2.929688 -5.125 2.992188 -5.117188 3.078125 -5.109375 L 3.078125 -4.21875 C 3.023438 -4.226562 2.976562 -4.234375 2.9375 -4.234375 C 2.894531 -4.234375 2.851562 -4.234375 2.8125 -4.234375 C 2.382812 -4.234375 2.054688 -4.097656 1.828125 -3.828125 C 1.597656 -3.554688 1.484375 -3.242188 1.484375 -2.890625 L 1.484375 0 L 0.640625 0 Z M 0.640625 -5.015625 "/>
</g>
<g id="glyph-0-6">
<path d="M 3.75 -5.015625 L 4.6875 -5.015625 C 4.5625 -4.691406 4.296875 -3.957031 3.890625 -2.8125 C 3.585938 -1.945312 3.332031 -1.242188 3.125 -0.703125 C 2.632812 0.578125 2.289062 1.359375 2.09375 1.640625 C 1.894531 1.921875 1.550781 2.0625 1.0625 2.0625 C 0.945312 2.0625 0.851562 2.054688 0.78125 2.046875 C 0.71875 2.035156 0.640625 2.015625 0.546875 1.984375 L 0.546875 1.21875 C 0.691406 1.257812 0.796875 1.285156 0.859375 1.296875 C 0.929688 1.304688 0.992188 1.3125 1.046875 1.3125 C 1.203125 1.3125 1.316406 1.285156 1.390625 1.234375 C 1.460938 1.179688 1.523438 1.117188 1.578125 1.046875 C 1.585938 1.015625 1.640625 0.882812 1.734375 0.65625 C 1.835938 0.425781 1.910156 0.253906 1.953125 0.140625 L 0.09375 -5.015625 L 1.046875 -5.015625 L 2.40625 -0.9375 Z M 2.390625 -5.140625 Z M 2.390625 -5.140625 "/>
</g>
<g id="glyph-0-7">
<path d="M 4.109375 -2.046875 C 4.109375 -1.472656 4.019531 -1.023438 3.84375 -0.703125 C 3.53125 -0.109375 2.925781 0.1875 2.03125 0.1875 C 1.519531 0.1875 1.078125 0.046875 0.703125 -0.234375 C 0.335938 -0.515625 0.15625 -1.015625 0.15625 -1.734375 L 0.15625 -2.21875 L 1.046875 -2.21875 L 1.046875 -1.734375 C 1.046875 -1.359375 1.128906 -1.070312 1.296875 -0.875 C 1.460938 -0.6875 1.722656 -0.59375 2.078125 -0.59375 C 2.566406 -0.59375 2.890625 -0.765625 3.046875 -1.109375 C 3.140625 -1.316406 3.1875 -1.710938 3.1875 -2.296875 L 3.1875 -6.875 L 4.109375 -6.875 Z M 4.109375 -2.046875 "/>
</g>
<g id="glyph-0-8">
<path d="M 1.46875 -5.015625 L 1.46875 -1.6875 C 1.46875 -1.425781 1.503906 -1.21875 1.578125 -1.0625 C 1.734375 -0.757812 2.015625 -0.609375 2.421875 -0.609375 C 3.003906 -0.609375 3.40625 -0.867188 3.625 -1.390625 C 3.738281 -1.671875 3.796875 -2.054688 3.796875 -2.546875 L 3.796875 -5.015625 L 4.640625 -5.015625 L 4.640625 0 L 3.84375 0 L 3.84375 -0.734375 C 3.738281 -0.546875 3.601562 -0.382812 3.4375 -0.25 C 3.113281 0.0078125 2.722656 0.140625 2.265625 0.140625 C 1.554688 0.140625 1.070312 -0.0976562 0.8125 -0.578125 C 0.664062 -0.835938 0.59375 -1.179688 0.59375 -1.609375 L 0.59375 -5.015625 Z M 2.625 -5.140625 Z M 2.625 -5.140625 "/>
</g>
<g id="glyph-0-9">
<path d="M 0.640625 -6.875 L 1.484375 -6.875 L 1.484375 0 L 0.640625 0 Z M 0.640625 -6.875 "/>
</g>
<g id="glyph-0-10">
<path d="M 1.34375 -2.21875 C 1.363281 -1.832031 1.453125 -1.515625 1.609375 -1.265625 C 1.921875 -0.804688 2.46875 -0.578125 3.25 -0.578125 C 3.601562 -0.578125 3.921875 -0.628906 4.203125 -0.734375 C 4.765625 -0.929688 5.046875 -1.28125 5.046875 -1.78125 C 5.046875 -2.15625 4.925781 -2.421875 4.6875 -2.578125 C 4.445312 -2.734375 4.078125 -2.867188 3.578125 -2.984375 L 2.640625 -3.1875 C 2.035156 -3.332031 1.601562 -3.488281 1.34375 -3.65625 C 0.90625 -3.9375 0.6875 -4.363281 0.6875 -4.9375 C 0.6875 -5.550781 0.898438 -6.054688 1.328125 -6.453125 C 1.765625 -6.859375 2.375 -7.0625 3.15625 -7.0625 C 3.875 -7.0625 4.484375 -6.882812 4.984375 -6.53125 C 5.492188 -6.1875 5.75 -5.628906 5.75 -4.859375 L 4.875 -4.859375 C 4.820312 -5.234375 4.722656 -5.515625 4.578125 -5.703125 C 4.285156 -6.066406 3.800781 -6.25 3.125 -6.25 C 2.570312 -6.25 2.175781 -6.132812 1.9375 -5.90625 C 1.695312 -5.675781 1.578125 -5.40625 1.578125 -5.09375 C 1.578125 -4.757812 1.71875 -4.515625 2 -4.359375 C 2.1875 -4.253906 2.601562 -4.128906 3.25 -3.984375 L 4.21875 -3.765625 C 4.675781 -3.660156 5.035156 -3.515625 5.296875 -3.328125 C 5.734375 -3.003906 5.953125 -2.535156 5.953125 -1.921875 C 5.953125 -1.160156 5.671875 -0.613281 5.109375 -0.28125 C 4.554688 0.0390625 3.914062 0.203125 3.1875 0.203125 C 2.332031 0.203125 1.660156 -0.015625 1.171875 -0.453125 C 0.691406 -0.890625 0.457031 -1.476562 0.46875 -2.21875 Z M 3.21875 -7.0625 Z M 3.21875 -7.0625 "/>
</g>
<g id="glyph-0-11">
<path d="M 2.703125 -5.125 C 3.054688 -5.125 3.398438 -5.039062 3.734375 -4.875 C 4.078125 -4.707031 4.332031 -4.492188 4.5 -4.234375 C 4.675781 -3.972656 4.789062 -3.675781 4.84375 -3.34375 C 4.894531 -3.113281 4.921875 -2.742188 4.921875 -2.234375 L 1.234375 -2.234375 C 1.253906 -1.722656 1.375 -1.3125 1.59375 -1 C 1.820312 -0.695312 2.171875 -0.546875 2.640625 -0.546875 C 3.085938 -0.546875 3.441406 -0.691406 3.703125 -0.984375 C 3.847656 -1.148438 3.953125 -1.347656 4.015625 -1.578125 L 4.84375 -1.578125 C 4.820312 -1.390625 4.75 -1.179688 4.625 -0.953125 C 4.507812 -0.734375 4.375 -0.550781 4.21875 -0.40625 C 3.957031 -0.15625 3.640625 0.015625 3.265625 0.109375 C 3.054688 0.148438 2.828125 0.171875 2.578125 0.171875 C 1.953125 0.171875 1.421875 -0.0507812 0.984375 -0.5 C 0.554688 -0.957031 0.34375 -1.59375 0.34375 -2.40625 C 0.34375 -3.21875 0.5625 -3.875 1 -4.375 C 1.4375 -4.875 2.003906 -5.125 2.703125 -5.125 Z M 4.046875 -2.90625 C 4.015625 -3.269531 3.9375 -3.5625 3.8125 -3.78125 C 3.582031 -4.1875 3.195312 -4.390625 2.65625 -4.390625 C 2.269531 -4.390625 1.941406 -4.25 1.671875 -3.96875 C 1.410156 -3.695312 1.273438 -3.34375 1.265625 -2.90625 Z M 2.625 -5.140625 Z M 2.625 -5.140625 "/>
</g>
<g id="glyph-0-12">
<path d="M 2.734375 -0.5625 C 3.128906 -0.5625 3.457031 -0.726562 3.71875 -1.0625 C 3.976562 -1.394531 4.109375 -1.882812 4.109375 -2.53125 C 4.109375 -2.9375 4.050781 -3.28125 3.9375 -3.5625 C 3.71875 -4.125 3.316406 -4.40625 2.734375 -4.40625 C 2.148438 -4.40625 1.75 -4.109375 1.53125 -3.515625 C 1.414062 -3.203125 1.359375 -2.804688 1.359375 -2.328125 C 1.359375 -1.941406 1.414062 -1.613281 1.53125 -1.34375 C 1.75 -0.820312 2.148438 -0.5625 2.734375 -0.5625 Z M 0.546875 -5 L 1.375 -5 L 1.375 -4.328125 C 1.539062 -4.554688 1.722656 -4.734375 1.921875 -4.859375 C 2.210938 -5.046875 2.546875 -5.140625 2.921875 -5.140625 C 3.492188 -5.140625 3.976562 -4.921875 4.375 -4.484375 C 4.769531 -4.046875 4.96875 -3.425781 4.96875 -2.625 C 4.96875 -1.53125 4.679688 -0.75 4.109375 -0.28125 C 3.742188 0.0195312 3.320312 0.171875 2.84375 0.171875 C 2.46875 0.171875 2.148438 0.0859375 1.890625 -0.078125 C 1.742188 -0.171875 1.578125 -0.332031 1.390625 -0.5625 L 1.390625 2 L 0.546875 2 Z M 0.546875 -5 "/>
</g>
<g id="glyph-0-13">
<path d="M 0.734375 -6.875 L 1.828125 -6.875 L 5.3125 -1.3125 L 5.3125 -6.875 L 6.1875 -6.875 L 6.1875 0 L 5.140625 0 L 1.625 -5.5625 L 1.625 0 L 0.734375 0 Z M 3.40625 -6.875 Z M 3.40625 -6.875 "/>
</g>
<g id="glyph-0-14">
<path d="M 2.609375 -0.546875 C 3.171875 -0.546875 3.554688 -0.753906 3.765625 -1.171875 C 3.972656 -1.597656 4.078125 -2.070312 4.078125 -2.59375 C 4.078125 -3.0625 4 -3.441406 3.84375 -3.734375 C 3.601562 -4.191406 3.195312 -4.421875 2.625 -4.421875 C 2.101562 -4.421875 1.722656 -4.222656 1.484375 -3.828125 C 1.253906 -3.441406 1.140625 -2.96875 1.140625 -2.40625 C 1.140625 -1.875 1.253906 -1.429688 1.484375 -1.078125 C 1.722656 -0.722656 2.097656 -0.546875 2.609375 -0.546875 Z M 2.640625 -5.15625 C 3.285156 -5.15625 3.832031 -4.941406 4.28125 -4.515625 C 4.726562 -4.085938 4.953125 -3.453125 4.953125 -2.609375 C 4.953125 -1.804688 4.753906 -1.140625 4.359375 -0.609375 C 3.960938 -0.078125 3.351562 0.1875 2.53125 0.1875 C 1.84375 0.1875 1.296875 -0.046875 0.890625 -0.515625 C 0.484375 -0.984375 0.28125 -1.613281 0.28125 -2.40625 C 0.28125 -3.238281 0.492188 -3.90625 0.921875 -4.40625 C 1.347656 -4.90625 1.921875 -5.15625 2.640625 -5.15625 Z M 2.609375 -5.140625 Z M 2.609375 -5.140625 "/>
</g>
<g id="glyph-0-15">
<path d="M 1.03125 -5.015625 L 2.375 -0.9375 L 3.765625 -5.015625 L 4.6875 -5.015625 L 2.796875 0 L 1.90625 0 L 0.046875 -5.015625 Z M 1.03125 -5.015625 "/>
</g>
<g id="glyph-0-16">
<path d="M 0.625 -5.015625 L 1.421875 -5.015625 L 1.421875 -4.3125 C 1.660156 -4.601562 1.910156 -4.8125 2.171875 -4.9375 C 2.441406 -5.0625 2.738281 -5.125 3.0625 -5.125 C 3.769531 -5.125 4.25 -4.878906 4.5 -4.390625 C 4.632812 -4.117188 4.703125 -3.726562 4.703125 -3.21875 L 4.703125 0 L 3.84375 0 L 3.84375 -3.15625 C 3.84375 -3.46875 3.800781 -3.71875 3.71875 -3.90625 C 3.5625 -4.21875 3.289062 -4.375 2.90625 -4.375 C 2.695312 -4.375 2.53125 -4.351562 2.40625 -4.3125 C 2.175781 -4.238281 1.972656 -4.097656 1.796875 -3.890625 C 1.660156 -3.734375 1.570312 -3.566406 1.53125 -3.390625 C 1.488281 -3.210938 1.46875 -2.957031 1.46875 -2.625 L 1.46875 0 L 0.625 0 Z M 2.59375 -5.140625 Z M 2.59375 -5.140625 "/>
</g>
<g id="glyph-1-0">
<path d="M 0 -0.390625 L -8.609375 -0.390625 L -8.609375 -7.21875 L 0 -7.21875 Z M -1.078125 -6.140625 L -7.53125 -6.140625 L -7.53125 -1.46875 L -1.078125 -1.46875 Z M -1.078125 -6.140625 "/>
</g>
<g id="glyph-1-1">
<path d="M -8.609375 -0.921875 L -8.609375 -2.296875 L -1.640625 -6.640625 L -8.609375 -6.640625 L -8.609375 -7.75 L 0 -7.75 L 0 -6.4375 L -6.96875 -2.03125 L 0 -2.03125 L 0 -0.921875 Z M -8.609375 -4.25 Z M -8.609375 -4.25 "/>
</g>
<g id="glyph-1-2">
<path d="M -6.421875 -3.390625 C -6.421875 -3.835938 -6.316406 -4.269531 -6.109375 -4.6875 C -5.898438 -5.101562 -5.628906 -5.421875 -5.296875 -5.640625 C -4.972656 -5.847656 -4.601562 -5.988281 -4.1875 -6.0625 C -3.894531 -6.125 -3.429688 -6.15625 -2.796875 -6.15625 L -2.796875 -1.546875 C -2.160156 -1.566406 -1.648438 -1.71875 -1.265625 -2 C -0.878906 -2.28125 -0.6875 -2.71875 -0.6875 -3.3125 C -0.6875 -3.863281 -0.867188 -4.300781 -1.234375 -4.625 C -1.441406 -4.8125 -1.6875 -4.945312 -1.96875 -5.03125 L -1.96875 -6.0625 C -1.738281 -6.039062 -1.484375 -5.953125 -1.203125 -5.796875 C -0.921875 -5.640625 -0.6875 -5.46875 -0.5 -5.28125 C -0.1875 -4.957031 0.0195312 -4.554688 0.125 -4.078125 C 0.1875 -3.828125 0.21875 -3.539062 0.21875 -3.21875 C 0.21875 -2.4375 -0.0625 -1.773438 -0.625 -1.234375 C -1.195312 -0.691406 -1.992188 -0.421875 -3.015625 -0.421875 C -4.023438 -0.421875 -4.84375 -0.691406 -5.46875 -1.234375 C -6.101562 -1.785156 -6.421875 -2.503906 -6.421875 -3.390625 Z M -3.640625 -5.0625 C -4.097656 -5.019531 -4.460938 -4.921875 -4.734375 -4.765625 C -5.242188 -4.484375 -5.5 -4.003906 -5.5 -3.328125 C -5.5 -2.835938 -5.320312 -2.425781 -4.96875 -2.09375 C -4.625 -1.769531 -4.179688 -1.597656 -3.640625 -1.578125 Z M -6.421875 -3.28125 Z M -6.421875 -3.28125 "/>
</g>
<g id="glyph-1-3">
<path d="M -6.28125 -1.265625 L -1.328125 -2.46875 L -6.28125 -3.6875 L -6.28125 -4.875 L -1.359375 -6.109375 L -6.28125 -7.390625 L -6.28125 -8.4375 L 0 -6.625 L 0 -5.53125 L -4.859375 -4.25 L 0 -3.015625 L 0 -1.921875 L -6.28125 -0.109375 Z M -6.28125 -1.265625 "/>
</g>
<g id="glyph-1-4">
</g>
<g id="glyph-1-5">
<path d="M -6.453125 -3.1875 C -6.453125 -3.894531 -6.28125 -4.46875 -5.9375 -4.90625 C -5.59375 -5.351562 -5.003906 -5.625 -4.171875 -5.71875 L -4.171875 -4.6875 C -4.554688 -4.625 -4.875 -4.484375 -5.125 -4.265625 C -5.382812 -4.046875 -5.515625 -3.6875 -5.515625 -3.1875 C -5.515625 -2.519531 -5.1875 -2.039062 -4.53125 -1.75 C -4.101562 -1.5625 -3.578125 -1.46875 -2.953125 -1.46875 C -2.328125 -1.46875 -1.796875 -1.597656 -1.359375 -1.859375 C -0.929688 -2.128906 -0.71875 -2.550781 -0.71875 -3.125 C -0.71875 -3.5625 -0.851562 -3.90625 -1.125 -4.15625 C -1.394531 -4.414062 -1.757812 -4.59375 -2.21875 -4.6875 L -2.21875 -5.71875 C -1.382812 -5.601562 -0.773438 -5.3125 -0.390625 -4.84375 C -0.00390625 -4.375 0.1875 -3.773438 0.1875 -3.046875 C 0.1875 -2.222656 -0.113281 -1.566406 -0.71875 -1.078125 C -1.320312 -0.585938 -2.070312 -0.34375 -2.96875 -0.34375 C -4.070312 -0.34375 -4.925781 -0.609375 -5.53125 -1.140625 C -6.144531 -1.679688 -6.453125 -2.363281 -6.453125 -3.1875 Z M -6.421875 -3.03125 Z M -6.421875 -3.03125 "/>
</g>
<g id="glyph-1-6">
<path d="M -1.671875 -1.578125 C -1.367188 -1.578125 -1.128906 -1.6875 -0.953125 -1.90625 C -0.773438 -2.132812 -0.6875 -2.398438 -0.6875 -2.703125 C -0.6875 -3.078125 -0.769531 -3.4375 -0.9375 -3.78125 C -1.226562 -4.375 -1.695312 -4.671875 -2.34375 -4.671875 L -3.1875 -4.671875 C -3.113281 -4.535156 -3.046875 -4.363281 -2.984375 -4.15625 C -2.929688 -3.957031 -2.894531 -3.757812 -2.875 -3.5625 L -2.796875 -2.9375 C -2.742188 -2.550781 -2.660156 -2.257812 -2.546875 -2.0625 C -2.367188 -1.738281 -2.078125 -1.578125 -1.671875 -1.578125 Z M -3.796875 -4.140625 C -3.828125 -4.378906 -3.929688 -4.539062 -4.109375 -4.625 C -4.203125 -4.664062 -4.335938 -4.6875 -4.515625 -4.6875 C -4.867188 -4.6875 -5.125 -4.554688 -5.28125 -4.296875 C -5.445312 -4.046875 -5.53125 -3.6875 -5.53125 -3.21875 C -5.53125 -2.664062 -5.382812 -2.273438 -5.09375 -2.046875 C -4.925781 -1.910156 -4.679688 -1.820312 -4.359375 -1.78125 L -4.359375 -0.796875 C -5.128906 -0.816406 -5.664062 -1.066406 -5.96875 -1.546875 C -6.269531 -2.035156 -6.421875 -2.597656 -6.421875 -3.234375 C -6.421875 -3.972656 -6.28125 -4.570312 -6 -5.03125 C -5.71875 -5.488281 -5.28125 -5.71875 -4.6875 -5.71875 L -1.078125 -5.71875 C -0.972656 -5.71875 -0.882812 -5.738281 -0.8125 -5.78125 C -0.75 -5.832031 -0.71875 -5.929688 -0.71875 -6.078125 C -0.71875 -6.117188 -0.71875 -6.164062 -0.71875 -6.21875 C -0.726562 -6.28125 -0.738281 -6.347656 -0.75 -6.421875 L 0.03125 -6.421875 C 0.0703125 -6.253906 0.0976562 -6.125 0.109375 -6.03125 C 0.128906 -5.945312 0.140625 -5.832031 0.140625 -5.6875 C 0.140625 -5.320312 0.0078125 -5.0625 -0.25 -4.90625 C -0.382812 -4.8125 -0.578125 -4.75 -0.828125 -4.71875 C -0.546875 -4.5 -0.300781 -4.1875 -0.09375 -3.78125 C 0.113281 -3.382812 0.21875 -2.945312 0.21875 -2.46875 C 0.21875 -1.882812 0.0390625 -1.40625 -0.3125 -1.03125 C -0.664062 -0.664062 -1.109375 -0.484375 -1.640625 -0.484375 C -2.222656 -0.484375 -2.675781 -0.664062 -3 -1.03125 C -3.320312 -1.394531 -3.519531 -1.867188 -3.59375 -2.453125 Z M -6.421875 -3.265625 Z M -6.421875 -3.265625 "/>
</g>
<g id="glyph-1-7">
<path d="M -1.96875 -1.40625 C -1.613281 -1.4375 -1.34375 -1.523438 -1.15625 -1.671875 C -0.820312 -1.929688 -0.65625 -2.390625 -0.65625 -3.046875 C -0.65625 -3.441406 -0.738281 -3.785156 -0.90625 -4.078125 C -1.070312 -4.378906 -1.332031 -4.53125 -1.6875 -4.53125 C -1.957031 -4.53125 -2.164062 -4.410156 -2.3125 -4.171875 C -2.394531 -4.015625 -2.492188 -3.710938 -2.609375 -3.265625 L -2.8125 -2.421875 C -2.945312 -1.890625 -3.097656 -1.5 -3.265625 -1.25 C -3.546875 -0.789062 -3.941406 -0.5625 -4.453125 -0.5625 C -5.046875 -0.5625 -5.523438 -0.773438 -5.890625 -1.203125 C -6.253906 -1.628906 -6.4375 -2.207031 -6.4375 -2.9375 C -6.4375 -3.875 -6.160156 -4.550781 -5.609375 -4.96875 C -5.253906 -5.238281 -4.875 -5.367188 -4.46875 -5.359375 L -4.46875 -4.359375 C -4.707031 -4.335938 -4.925781 -4.253906 -5.125 -4.109375 C -5.394531 -3.867188 -5.53125 -3.445312 -5.53125 -2.84375 C -5.53125 -2.445312 -5.453125 -2.144531 -5.296875 -1.9375 C -5.148438 -1.738281 -4.953125 -1.640625 -4.703125 -1.640625 C -4.429688 -1.640625 -4.210938 -1.773438 -4.046875 -2.046875 C -3.953125 -2.203125 -3.867188 -2.429688 -3.796875 -2.734375 L -3.625 -3.421875 C -3.4375 -4.179688 -3.257812 -4.691406 -3.09375 -4.953125 C -2.820312 -5.359375 -2.394531 -5.5625 -1.8125 -5.5625 C -1.257812 -5.5625 -0.78125 -5.347656 -0.375 -4.921875 C 0.03125 -4.503906 0.234375 -3.863281 0.234375 -3 C 0.234375 -2.0625 0.0234375 -1.394531 -0.390625 -1 C -0.816406 -0.613281 -1.34375 -0.410156 -1.96875 -0.390625 Z M -6.421875 -2.953125 Z M -6.421875 -2.953125 "/>
</g>
<g id="glyph-1-8">
<path d="M -0.703125 -3.421875 C -0.703125 -3.910156 -0.910156 -4.316406 -1.328125 -4.640625 C -1.742188 -4.972656 -2.359375 -5.140625 -3.171875 -5.140625 C -3.671875 -5.140625 -4.101562 -5.066406 -4.46875 -4.921875 C -5.15625 -4.648438 -5.5 -4.148438 -5.5 -3.421875 C -5.5 -2.691406 -5.132812 -2.191406 -4.40625 -1.921875 C -4.019531 -1.773438 -3.523438 -1.703125 -2.921875 -1.703125 C -2.429688 -1.703125 -2.019531 -1.773438 -1.6875 -1.921875 C -1.03125 -2.191406 -0.703125 -2.691406 -0.703125 -3.421875 Z M -6.25 -0.6875 L -6.25 -1.71875 L -5.421875 -1.71875 C -5.703125 -1.925781 -5.921875 -2.15625 -6.078125 -2.40625 C -6.304688 -2.757812 -6.421875 -3.175781 -6.421875 -3.65625 C -6.421875 -4.375 -6.148438 -4.976562 -5.609375 -5.46875 C -5.066406 -5.96875 -4.289062 -6.21875 -3.28125 -6.21875 C -1.90625 -6.21875 -0.925781 -5.859375 -0.34375 -5.140625 C 0.03125 -4.691406 0.21875 -4.164062 0.21875 -3.5625 C 0.21875 -3.09375 0.113281 -2.695312 -0.09375 -2.375 C -0.21875 -2.1875 -0.421875 -1.976562 -0.703125 -1.75 L 2.5 -1.75 L 2.5 -0.6875 Z M -6.25 -0.6875 "/>
</g>
<g id="glyph-1-9">
<path d="M -6.28125 -0.796875 L -6.28125 -1.8125 L -5.1875 -1.8125 C -5.40625 -1.882812 -5.664062 -2.082031 -5.96875 -2.40625 C -6.269531 -2.726562 -6.421875 -3.097656 -6.421875 -3.515625 C -6.421875 -3.535156 -6.414062 -3.566406 -6.40625 -3.609375 C -6.40625 -3.660156 -6.398438 -3.742188 -6.390625 -3.859375 L -5.28125 -3.859375 C -5.289062 -3.796875 -5.296875 -3.738281 -5.296875 -3.6875 C -5.296875 -3.632812 -5.296875 -3.578125 -5.296875 -3.515625 C -5.296875 -2.984375 -5.125 -2.570312 -4.78125 -2.28125 C -4.445312 -2 -4.054688 -1.859375 -3.609375 -1.859375 L 0 -1.859375 L 0 -0.796875 Z M -6.28125 -0.796875 "/>
</g>
<g id="glyph-1-10">
<path d="M -3.0625 -1.4375 C -2.394531 -1.4375 -1.832031 -1.578125 -1.375 -1.859375 C -0.925781 -2.148438 -0.703125 -2.609375 -0.703125 -3.234375 C -0.703125 -3.722656 -0.910156 -4.125 -1.328125 -4.4375 C -1.742188 -4.757812 -2.347656 -4.921875 -3.140625 -4.921875 C -3.929688 -4.921875 -4.515625 -4.753906 -4.890625 -4.421875 C -5.273438 -4.097656 -5.46875 -3.703125 -5.46875 -3.234375 C -5.46875 -2.703125 -5.265625 -2.269531 -4.859375 -1.9375 C -4.453125 -1.601562 -3.851562 -1.4375 -3.0625 -1.4375 Z M -6.390625 -3.03125 C -6.390625 -3.507812 -6.285156 -3.910156 -6.078125 -4.234375 C -5.960938 -4.421875 -5.757812 -4.632812 -5.46875 -4.875 L -8.640625 -4.875 L -8.640625 -5.890625 L 0 -5.890625 L 0 -4.9375 L -0.875 -4.9375 C -0.488281 -4.695312 -0.207031 -4.40625 -0.03125 -4.0625 C 0.132812 -3.726562 0.21875 -3.34375 0.21875 -2.90625 C 0.21875 -2.207031 -0.0703125 -1.601562 -0.65625 -1.09375 C -1.25 -0.582031 -2.03125 -0.328125 -3 -0.328125 C -3.914062 -0.328125 -4.707031 -0.5625 -5.375 -1.03125 C -6.050781 -1.5 -6.390625 -2.164062 -6.390625 -3.03125 Z M -6.390625 -3.03125 "/>
</g>
<g id="glyph-1-11">
<path d="M -6.28125 -4.6875 L -6.28125 -5.859375 C -5.875 -5.710938 -4.953125 -5.382812 -3.515625 -4.875 C -2.441406 -4.488281 -1.566406 -4.164062 -0.890625 -3.90625 C 0.710938 -3.300781 1.691406 -2.875 2.046875 -2.625 C 2.398438 -2.375 2.578125 -1.941406 2.578125 -1.328125 C 2.578125 -1.179688 2.566406 -1.066406 2.546875 -0.984375 C 2.535156 -0.910156 2.515625 -0.8125 2.484375 -0.6875 L 1.53125 -0.6875 C 1.582031 -0.875 1.613281 -1.007812 1.625 -1.09375 C 1.632812 -1.175781 1.640625 -1.25 1.640625 -1.3125 C 1.640625 -1.5 1.609375 -1.640625 1.546875 -1.734375 C 1.484375 -1.828125 1.40625 -1.90625 1.3125 -1.96875 C 1.28125 -1.988281 1.117188 -2.054688 0.828125 -2.171875 C 0.535156 -2.296875 0.320312 -2.382812 0.1875 -2.4375 L -6.28125 -0.125 L -6.28125 -1.3125 L -1.171875 -3 Z M -6.421875 -3 Z M -6.421875 -3 "/>
</g>
<g id="glyph-1-12">
<path d="M 1.21875 -1 C 1.175781 -1.269531 0.988281 -1.457031 0.65625 -1.5625 C 0.476562 -1.625 0.304688 -1.65625 0.140625 -1.65625 C 0.117188 -1.65625 0.0976562 -1.648438 0.078125 -1.640625 C 0.0546875 -1.640625 0.03125 -1.640625 0 -1.640625 L 0 -1 L -1.28125 -1 L -1.28125 -2.25 L -0.09375 -2.25 C 0.375 -2.25 0.78125 -2.15625 1.125 -1.96875 C 1.476562 -1.78125 1.695312 -1.457031 1.78125 -1 Z M 1.21875 -1 "/>
</g>
<g id="glyph-1-13">
<path d="M -8.609375 -0.796875 L -8.609375 -1.859375 L 0 -1.859375 L 0 -0.796875 Z M -8.609375 -0.796875 "/>
</g>
<g id="glyph-1-14">
<path d="M -6.28125 -1.828125 L -2.109375 -1.828125 C -1.785156 -1.828125 -1.523438 -1.878906 -1.328125 -1.984375 C -0.953125 -2.171875 -0.765625 -2.519531 -0.765625 -3.03125 C -0.765625 -3.757812 -1.09375 -4.257812 -1.75 -4.53125 C -2.101562 -4.675781 -2.582031 -4.75 -3.1875 -4.75 L -6.28125 -4.75 L -6.28125 -5.796875 L 0 -5.796875 L 0 -4.8125 L -0.921875 -4.8125 C -0.679688 -4.675781 -0.484375 -4.507812 -0.328125 -4.3125 C 0.00390625 -3.90625 0.171875 -3.414062 0.171875 -2.84375 C 0.171875 -1.945312 -0.128906 -1.335938 -0.734375 -1.015625 C -1.046875 -0.835938 -1.472656 -0.75 -2.015625 -0.75 L -6.28125 -0.75 Z M -6.421875 -3.28125 Z M -6.421875 -3.28125 "/>
</g>
<g id="glyph-1-15">
<path d="M -0.6875 -3.265625 C -0.6875 -3.960938 -0.945312 -4.441406 -1.46875 -4.703125 C -2 -4.960938 -2.585938 -5.09375 -3.234375 -5.09375 C -3.828125 -5.09375 -4.304688 -5 -4.671875 -4.8125 C -5.242188 -4.507812 -5.53125 -4 -5.53125 -3.28125 C -5.53125 -2.632812 -5.285156 -2.164062 -4.796875 -1.875 C -4.304688 -1.582031 -3.710938 -1.4375 -3.015625 -1.4375 C -2.347656 -1.4375 -1.789062 -1.582031 -1.34375 -1.875 C -0.90625 -2.164062 -0.6875 -2.628906 -0.6875 -3.265625 Z M -6.453125 -3.3125 C -6.453125 -4.113281 -6.179688 -4.789062 -5.640625 -5.34375 C -5.109375 -5.90625 -4.316406 -6.1875 -3.265625 -6.1875 C -2.253906 -6.1875 -1.414062 -5.941406 -0.75 -5.453125 C -0.09375 -4.960938 0.234375 -4.203125 0.234375 -3.171875 C 0.234375 -2.304688 -0.0546875 -1.617188 -0.640625 -1.109375 C -1.234375 -0.597656 -2.019531 -0.34375 -3 -0.34375 C -4.050781 -0.34375 -4.890625 -0.609375 -5.515625 -1.140625 C -6.140625 -1.679688 -6.453125 -2.40625 -6.453125 -3.3125 Z M -6.421875 -3.265625 Z M -6.421875 -3.265625 "/>
</g>
<g id="glyph-1-16">
<path d="M -6.28125 -0.78125 L -6.28125 -1.78125 L -5.390625 -1.78125 C -5.753906 -2.070312 -6.015625 -2.382812 -6.171875 -2.71875 C -6.335938 -3.050781 -6.421875 -3.421875 -6.421875 -3.828125 C -6.421875 -4.710938 -6.109375 -5.3125 -5.484375 -5.625 C -5.140625 -5.800781 -4.65625 -5.890625 -4.03125 -5.890625 L 0 -5.890625 L 0 -4.8125 L -3.953125 -4.8125 C -4.335938 -4.8125 -4.644531 -4.753906 -4.875 -4.640625 C -5.269531 -4.453125 -5.46875 -4.113281 -5.46875 -3.625 C -5.46875 -3.375 -5.441406 -3.171875 -5.390625 -3.015625 C -5.304688 -2.722656 -5.132812 -2.46875 -4.875 -2.25 C -4.664062 -2.070312 -4.453125 -1.957031 -4.234375 -1.90625 C -4.015625 -1.851562 -3.695312 -1.828125 -3.28125 -1.828125 L 0 -1.828125 L 0 -0.78125 Z M -6.421875 -3.25 Z M -6.421875 -3.25 "/>
</g>
</g>
<clipPath id="clip-0">
<path clip-rule="nonzero" d="M 46.347656 267 L 498.023438 267 L 498.023438 269 L 46.347656 269 Z M 46.347656 267 "/>
</clipPath>
<clipPath id="clip-1">
<path clip-rule="nonzero" d="M 46.347656 188 L 498.023438 188 L 498.023438 190 L 46.347656 190 Z M 46.347656 188 "/>
</clipPath>
<clipPath id="clip-2">
<path clip-rule="nonzero" d="M 46.347656 109 L 498.023438 109 L 498.023438 111 L 46.347656 111 Z M 46.347656 109 "/>
</clipPath>
<clipPath id="clip-3">
<path clip-rule="nonzero" d="M 46.347656 30 L 498.023438 30 L 498.023438 32 L 46.347656 32 Z M 46.347656 30 "/>
</clipPath>
<clipPath id="clip-4">
<path clip-rule="nonzero" d="M 113 5.976562 L 114 5.976562 L 114 280.640625 L 113 280.640625 Z M 113 5.976562 "/>
</clipPath>
<clipPath id="clip-5">
<path clip-rule="nonzero" d="M 185 5.976562 L 187 5.976562 L 187 280.640625 L 185 280.640625 Z M 185 5.976562 "/>
</clipPath>
<clipPath id="clip-6">
<path clip-rule="nonzero" d="M 258 5.976562 L 260 5.976562 L 260 280.640625 L 258 280.640625 Z M 258 5.976562 "/>
</clipPath>
<clipPath id="clip-7">
<path clip-rule="nonzero" d="M 332 5.976562 L 334 5.976562 L 334 280.640625 L 332 280.640625 Z M 332 5.976562 "/>
</clipPath>
<clipPath id="clip-8">
<path clip-rule="nonzero" d="M 405 5.976562 L 407 5.976562 L 407 280.640625 L 405 280.640625 Z M 405 5.976562 "/>
</clipPath>
<clipPath id="clip-9">
<path clip-rule="nonzero" d="M 478 5.976562 L 480 5.976562 L 480 280.640625 L 478 280.640625 Z M 478 5.976562 "/>
</clipPath>
</defs>
<rect x="-50.4" y="-30.2" width="604.8" height="362.4" fill="rgb(100%, 100%, 100%)" fill-opacity="1"/>
<rect x="-50.4" y="-30.2" width="604.8" height="362.4" fill="rgb(100%, 100%, 100%)" fill-opacity="1"/>
<g clip-path="url(#clip-0)">
<path fill="none" stroke-width="0.640187" stroke-linecap="butt" stroke-linejoin="round" stroke="rgb(86.666667%, 89.019608%, 91.764706%)" stroke-opacity="1" stroke-miterlimit="10" d="M 46.347656 268.15625 L 498.023438 268.15625 "/>
</g>
<g clip-path="url(#clip-1)">
<path fill="none" stroke-width="0.640187" stroke-linecap="butt" stroke-linejoin="round" stroke="rgb(86.666667%, 89.019608%, 91.764706%)" stroke-opacity="1" stroke-miterlimit="10" d="M 46.347656 189 L 498.023438 189 "/>
</g>
<g clip-path="url(#clip-2)">
<path fill="none" stroke-width="0.640187" stroke-linecap="butt" stroke-linejoin="round" stroke="rgb(86.666667%, 89.019608%, 91.764706%)" stroke-opacity="1" stroke-miterlimit="10" d="M 46.347656 109.84375 L 498.023438 109.84375 "/>
</g>
<g clip-path="url(#clip-3)">
<path fill="none" stroke-width="0.640187" stroke-linecap="butt" stroke-linejoin="round" stroke="rgb(86.666667%, 89.019608%, 91.764706%)" stroke-opacity="1" stroke-miterlimit="10" d="M 46.347656 30.6875 L 498.023438 30.6875 "/>
</g>
<g clip-path="url(#clip-4)">
<path fill="none" stroke-width="0.640187" stroke-linecap="butt" stroke-linejoin="round" stroke="rgb(86.666667%, 89.019608%, 91.764706%)" stroke-opacity="1" stroke-miterlimit="10" d="M 113.429688 280.644531 L 113.429688 5.976562 "/>
</g>
<g clip-path="url(#clip-5)">
<path fill="none" stroke-width="0.640187" stroke-linecap="butt" stroke-linejoin="round" stroke="rgb(86.666667%, 89.019608%, 91.764706%)" stroke-opacity="1" stroke-miterlimit="10" d="M 186.242188 280.644531 L 186.242188 5.976562 "/>
</g>
<g clip-path="url(#clip-6)">
<path fill="none" stroke-width="0.640187" stroke-linecap="butt" stroke-linejoin="round" stroke="rgb(86.666667%, 89.019608%, 91.764706%)" stroke-opacity="1" stroke-miterlimit="10" d="M 259.054688 280.644531 L 259.054688 5.976562 "/>
</g>
<g clip-path="url(#clip-7)">
<path fill="none" stroke-width="0.640187" stroke-linecap="butt" stroke-linejoin="round" stroke="rgb(86.666667%, 89.019608%, 91.764706%)" stroke-opacity="1" stroke-miterlimit="10" d="M 333.058594 280.644531 L 333.058594 5.976562 "/>
</g>
<g clip-path="url(#clip-8)">
<path fill="none" stroke-width="0.640187" stroke-linecap="butt" stroke-linejoin="round" stroke="rgb(86.666667%, 89.019608%, 91.764706%)" stroke-opacity="1" stroke-miterlimit="10" d="M 405.871094 280.644531 L 405.871094 5.976562 "/>
</g>
<g clip-path="url(#clip-9)">
<path fill="none" stroke-width="0.640187" stroke-linecap="butt" stroke-linejoin="round" stroke="rgb(86.666667%, 89.019608%, 91.764706%)" stroke-opacity="1" stroke-miterlimit="10" d="M 478.683594 280.644531 L 478.683594 5.976562 "/>
</g>
<path fill="none" stroke-width="1.49377" stroke-linecap="butt" stroke-linejoin="round" stroke="rgb(0%, 23.921569%, 48.627451%)" stroke-opacity="1" stroke-miterlimit="10" d="M 66.875 268.15625 L 68.070312 244.328125 L 69.265625 230.390625 L 70.457031 268.15625 L 71.652344 244.328125 L 72.84375 244.328125 L 74.039062 230.390625 L 75.234375 268.15625 L 76.425781 220.5 L 78.8125 220.5 L 80.007812 230.390625 L 81.199219 268.15625 L 82.394531 201.261719 L 83.589844 212.828125 L 84.78125 268.15625 L 85.976562 230.390625 L 87.167969 220.5 L 88.363281 196.671875 L 89.554688 206.5625 L 90.75 230.390625 L 91.945312 220.5 L 93.136719 192.621094 L 94.332031 189 L 95.523438 206.5625 L 96.71875 220.5 L 97.910156 230.390625 L 99.105469 212.828125 L 100.300781 220.5 L 101.492188 268.15625 L 102.6875 244.328125 L 103.878906 268.15625 L 105.074219 212.828125 L 106.265625 268.15625 L 107.460938 230.390625 L 108.65625 230.390625 L 109.847656 268.15625 L 111.042969 268.15625 L 112.234375 189 L 113.429688 212.828125 L 114.621094 230.390625 L 115.816406 230.390625 L 117.011719 268.15625 L 118.203125 196.671875 L 119.398438 177.433594 L 120.589844 192.621094 L 121.785156 179.980469 L 122.976562 268.15625 L 124.171875 185.722656 L 125.367188 166.933594 L 126.558594 268.15625 L 127.753906 160.367188 L 128.945312 179.980469 L 130.140625 175.0625 L 131.332031 168.792969 L 132.527344 158.902344 L 133.722656 135.074219 L 134.914062 147.957031 L 136.109375 140.496094 L 137.300781 135.074219 L 138.496094 158.902344 L 139.6875 130.394531 L 140.882812 133.671875 L 142.078125 120.195312 L 143.269531 131.667969 L 144.464844 133.671875 L 145.65625 121.617188 L 146.851562 138.855469 L 148.046875 144.964844 L 149.238281 135.074219 L 150.433594 119.734375 L 151.625 133.671875 L 152.820312 124.128906 L 154.011719 119.277344 L 155.207031 103.289062 L 156.402344 123.609375 L 157.59375 107.515625 L 158.789062 97.546875 L 159.980469 73.480469 L 161.175781 86.1875 L 162.367188 87.417969 L 163.5625 80.617188 L 164.757812 63.320312 L 165.949219 68.28125 L 167.144531 58.289062 L 168.335938 41.550781 L 169.53125 46.898438 L 170.722656 32.703125 L 171.917969 48.417969 L 173.113281 18.460938 L 174.304688 27.035156 L 175.5 30.105469 L 176.691406 29.402344 L 177.886719 34.382812 L 179.078125 47.175781 L 180.273438 33.105469 L 181.46875 38.355469 L 182.660156 52.578125 L 183.855469 43.394531 L 185.046875 52.578125 L 186.242188 33.070312 L 187.433594 58.289062 L 188.628906 45.074219 L 189.824219 49.769531 L 191.015625 46.40625 L 192.210938 38.832031 L 193.402344 40.945312 L 194.597656 39.714844 L 195.789062 40.394531 L 196.984375 35.199219 L 198.179688 55.421875 L 199.371094 36.273438 L 200.566406 44.148438 L 201.757812 40.4375 L 202.953125 38.617188 L 204.144531 56.9375 L 205.339844 43.792969 L 206.535156 71.394531 L 207.726562 57.984375 L 208.921875 49.949219 L 210.113281 58.214844 L 211.308594 47.398438 L 212.5 45.867188 L 213.695312 51.300781 L 214.890625 67.269531 L 216.082031 63.589844 L 217.277344 52.253906 L 218.46875 64.496094 L 219.664062 47.566406 L 220.859375 54.035156 L 222.050781 53.234375 L 223.246094 61.421875 L 224.4375 51.550781 L 225.632812 50.011719 L 226.824219 53.300781 L 228.019531 76.730469 L 229.214844 67.269531 L 230.40625 63.589844 L 231.601562 63.320312 L 232.792969 82.894531 L 233.988281 57.984375 L 235.179688 60.265625 L 236.375 57.082031 L 237.570312 66.972656 L 238.761719 61.503906 L 239.957031 83.527344 L 241.148438 95.449219 L 242.34375 78.621094 L 243.535156 77.261719 L 244.730469 97.546875 L 245.925781 82.894531 L 247.117188 76.601562 L 248.3125 82.894531 L 249.503906 103.574219 L 250.699219 87.417969 L 251.890625 105.339844 L 253.085938 82.738281 L 254.28125 73.003906 L 255.472656 83.6875 L 256.667969 85.503906 L 257.859375 78.757812 L 259.054688 83.367188 L 260.246094 87.960938 L 261.441406 91.601562 L 262.636719 88.507812 L 263.828125 99.019531 L 265.023438 88.882812 L 266.214844 94.117188 L 267.410156 93.902344 L 268.601562 101.898438 L 269.796875 87.417969 L 270.992188 91.601562 L 272.183594 89.828125 L 273.378906 69.535156 L 274.570312 66.972656 L 275.765625 78.480469 L 276.957031 78.480469 L 278.152344 69.007812 L 279.347656 85.503906 L 280.539062 77.261719 L 281.734375 102.449219 L 282.925781 62.1875 L 284.121094 70.835938 L 285.3125 66.289062 L 286.507812 74.695312 L 287.703125 53.566406 L 288.894531 55.773438 L 290.089844 56.640625 L 291.28125 65.808594 L 292.476562 68.28125 L 293.671875 74.570312 L 294.863281 62.445312 L 296.058594 71.171875 L 297.25 70.507812 L 298.445312 81.660156 L 299.636719 72.539062 L 300.832031 33.964844 L 302.027344 71.847656 L 303.21875 79.320312 L 304.414062 100.039062 L 305.605469 90.410156 L 306.800781 87.960938 L 307.992188 126.277344 L 309.1875 138.855469 L 310.382812 108.828125 L 311.574219 115.835938 L 312.769531 116.664062 L 313.960938 114.628906 L 315.15625 112.710938 L 316.347656 109.5 L 317.542969 111.96875 L 318.738281 122.601562 L 319.929688 104.152344 L 321.125 132.992188 L 322.316406 114.238281 L 323.511719 132.324219 L 324.703125 149.015625 L 325.898438 126.835938 L 327.09375 118.386719 L 328.285156 111.605469 L 329.480469 132.324219 L 330.671875 130.394531 L 331.867188 139.664062 L 333.058594 140.496094 L 334.253906 192.621094 L 335.449219 134.367188 L 336.640625 140.496094 L 337.835938 145.933594 L 339.027344 140.496094 L 340.222656 160.367188 L 341.414062 135.074219 L 342.609375 119.277344 L 343.804688 125.1875 L 344.996094 114.628906 L 346.191406 138.855469 L 347.382812 133.671875 L 348.578125 134.367188 L 349.769531 145.933594 L 350.964844 154.855469 L 352.160156 166.933594 L 353.351562 182.734375 L 354.546875 172.84375 L 355.738281 166.933594 L 356.933594 150.105469 L 358.125 161.894531 L 359.320312 179.980469 L 360.515625 172.84375 L 361.707031 182.734375 L 362.902344 163.496094 L 364.09375 172.84375 L 365.289062 172.84375 L 366.484375 153.605469 L 367.675781 158.902344 L 368.871094 165.171875 L 370.0625 185.722656 L 371.257812 201.261719 L 372.449219 179.980469 L 373.644531 196.671875 L 374.839844 182.734375 L 376.03125 185.722656 L 377.226562 189 L 378.417969 185.722656 L 379.613281 196.671875 L 380.804688 185.722656 L 382 212.828125 L 383.195312 212.828125 L 384.386719 206.5625 L 385.582031 220.5 L 386.773438 189 L 387.96875 220.5 L 389.160156 196.671875 L 390.355469 212.828125 L 391.550781 201.261719 L 392.742188 179.980469 L 393.9375 192.621094 L 395.128906 185.722656 L 396.324219 175.0625 L 397.515625 206.5625 L 398.710938 220.5 L 399.90625 196.671875 L 402.292969 196.671875 L 403.484375 189 L 404.679688 179.980469 L 405.871094 212.828125 L 407.066406 244.328125 L 408.261719 189 L 409.453125 196.671875 L 410.648438 196.671875 L 411.839844 212.828125 L 413.035156 196.671875 L 414.226562 230.390625 L 415.421875 192.621094 L 416.617188 189 L 417.808594 166.933594 L 419.003906 182.734375 L 420.195312 179.980469 L 421.390625 230.390625 L 422.582031 220.5 L 423.777344 206.5625 L 424.972656 201.261719 L 426.164062 206.5625 L 427.359375 212.828125 L 428.550781 212.828125 L 429.746094 206.5625 L 430.9375 179.980469 L 432.132812 206.5625 L 433.328125 166.933594 L 434.519531 196.671875 L 435.714844 206.5625 L 436.90625 212.828125 L 438.101562 201.261719 L 439.296875 192.621094 L 440.488281 206.5625 L 441.683594 185.722656 L 442.875 230.390625 L 444.070312 189 L 445.261719 220.5 L 446.457031 177.433594 L 447.652344 206.5625 L 448.84375 177.433594 L 450.039062 179.980469 L 451.230469 201.261719 L 452.425781 201.261719 L 453.617188 192.621094 L 454.8125 192.621094 L 456.007812 196.671875 L 457.199219 206.5625 L 458.394531 170.757812 L 459.585938 179.980469 L 460.78125 157.5 L 461.972656 189 L 463.167969 168.792969 L 464.363281 165.171875 L 465.554688 185.722656 L 466.75 151.234375 L 467.941406 161.894531 L 469.136719 177.433594 L 470.328125 175.0625 L 471.523438 185.722656 L 472.71875 206.5625 L 473.910156 206.5625 L 475.105469 177.433594 L 476.296875 153.605469 L 477.492188 150.105469 "/>
<g fill="rgb(35.294118%, 40%, 44.705882%)" fill-opacity="1">
<use xlink:href="#glyph-0-1" x="35.964844" y="271.047852"/>
</g>
<g fill="rgb(35.294118%, 40%, 44.705882%)" fill-opacity="1">
<use xlink:href="#glyph-0-1" x="30.964844" y="191.891602"/>
<use xlink:href="#glyph-0-2" x="35.964844" y="191.891602"/>
</g>
<g fill="rgb(35.294118%, 40%, 44.705882%)" fill-opacity="1">
<use xlink:href="#glyph-0-1" x="25.964844" y="112.735352"/>
<use xlink:href="#glyph-0-2" x="30.964844" y="112.735352"/>
<use xlink:href="#glyph-0-2" x="35.964844" y="112.735352"/>
</g>
<g fill="rgb(35.294118%, 40%, 44.705882%)" fill-opacity="1">
<use xlink:href="#glyph-0-1" x="20.964844" y="33.579102"/>
<use xlink:href="#glyph-0-2" x="25.964844" y="33.579102"/>
<use xlink:href="#glyph-0-2" x="30.964844" y="33.579102"/>
<use xlink:href="#glyph-0-2" x="35.964844" y="33.579102"/>
</g>
<g fill="rgb(35.294118%, 40%, 44.705882%)" fill-opacity="1">
<use xlink:href="#glyph-0-3" x="105.429688" y="292.415039"/>
<use xlink:href="#glyph-0-4" x="113.429688" y="292.415039"/>
<use xlink:href="#glyph-0-5" x="118.429688" y="292.415039"/>
</g>
<g fill="rgb(35.294118%, 40%, 44.705882%)" fill-opacity="1">
<use xlink:href="#glyph-0-3" x="177.242188" y="292.415039"/>
<use xlink:href="#glyph-0-4" x="185.242188" y="292.415039"/>
<use xlink:href="#glyph-0-6" x="190.242188" y="292.415039"/>
</g>
<g fill="rgb(35.294118%, 40%, 44.705882%)" fill-opacity="1">
<use xlink:href="#glyph-0-7" x="253.054688" y="292.415039"/>
<use xlink:href="#glyph-0-8" x="258.054688" y="292.415039"/>
<use xlink:href="#glyph-0-9" x="263.054688" y="292.415039"/>
</g>
<g fill="rgb(35.294118%, 40%, 44.705882%)" fill-opacity="1">
<use xlink:href="#glyph-0-10" x="325.058594" y="292.415039"/>
<use xlink:href="#glyph-0-11" x="331.058594" y="292.415039"/>
<use xlink:href="#glyph-0-12" x="336.058594" y="292.415039"/>
</g>
<g fill="rgb(35.294118%, 40%, 44.705882%)" fill-opacity="1">
<use xlink:href="#glyph-0-13" x="397.371094" y="292.415039"/>
<use xlink:href="#glyph-0-14" x="404.371094" y="292.415039"/>
<use xlink:href="#glyph-0-15" x="409.371094" y="292.415039"/>
</g>
<g fill="rgb(35.294118%, 40%, 44.705882%)" fill-opacity="1">
<use xlink:href="#glyph-0-7" x="471.183594" y="292.415039"/>
<use xlink:href="#glyph-0-4" x="476.183594" y="292.415039"/>
<use xlink:href="#glyph-0-16" x="481.183594" y="292.415039"/>
</g>
<g fill="rgb(35.294118%, 40%, 44.705882%)" fill-opacity="1">
<use xlink:href="#glyph-1-1" x="14.216797" y="221.808594"/>
<use xlink:href="#glyph-1-2" x="14.216797" y="212.808594"/>
<use xlink:href="#glyph-1-3" x="14.216797" y="205.808594"/>
<use xlink:href="#glyph-1-4" x="14.216797" y="196.808594"/>
<use xlink:href="#glyph-1-5" x="14.216797" y="193.808594"/>
<use xlink:href="#glyph-1-6" x="14.216797" y="187.808594"/>
<use xlink:href="#glyph-1-7" x="14.216797" y="180.808594"/>
<use xlink:href="#glyph-1-2" x="14.216797" y="174.808594"/>
<use xlink:href="#glyph-1-7" x="14.216797" y="167.808594"/>
<use xlink:href="#glyph-1-4" x="14.216797" y="161.808594"/>
<use xlink:href="#glyph-1-8" x="14.216797" y="158.808594"/>
<use xlink:href="#glyph-1-2" x="14.216797" y="151.808594"/>
<use xlink:href="#glyph-1-9" x="14.216797" y="144.808594"/>
<use xlink:href="#glyph-1-4" x="14.216797" y="140.808594"/>
<use xlink:href="#glyph-1-10" x="14.216797" y="137.808594"/>
<use xlink:href="#glyph-1-6" x="14.216797" y="130.808594"/>
<use xlink:href="#glyph-1-11" x="14.216797" y="123.808594"/>
<use xlink:href="#glyph-1-12" x="14.216797" y="117.808594"/>
<use xlink:href="#glyph-1-4" x="14.216797" y="114.808594"/>
<use xlink:href="#glyph-1-8" x="14.216797" y="111.808594"/>
<use xlink:href="#glyph-1-13" x="14.216797" y="104.808594"/>
<use xlink:href="#glyph-1-14" x="14.216797" y="101.808594"/>
<use xlink:href="#glyph-1-7" x="14.216797" y="94.808594"/>
<use xlink:href="#glyph-1-4" x="14.216797" y="88.808594"/>
<use xlink:href="#glyph-1-15" x="14.216797" y="85.808594"/>
<use xlink:href="#glyph-1-16" x="14.216797" y="78.808594"/>
<use xlink:href="#glyph-1-2" x="14.216797" y="71.808594"/>
</g>
</svg>
