<?xml version="1.0" encoding="UTF-8"?>
<svg xmlns="http://www.w3.org/2000/svg" xmlns:xlink="http://www.w3.org/1999/xlink" width="504pt" height="302pt" viewBox="0 0 504 302">
<defs>
<g>
<g id="glyph-0-0">
<path d="M 0.921875 -4.75 L 0.921875 -5.390625 C 1.523438 -5.453125 1.945312 -5.550781 2.1875 -5.6875 C 2.425781 -5.832031 2.609375 -6.164062 2.734375 -6.6875 L 3.390625 -6.6875 L 3.390625 0 L 2.5 0 L 2.5 -4.75 Z M 0.921875 -4.75 "/>
</g>
<g id="glyph-0-1">
<path d="M 2.59375 -6.703125 C 3.457031 -6.703125 4.085938 -6.347656 4.484375 -5.640625 C 4.773438 -5.085938 4.921875 -4.328125 4.921875 -3.359375 C 4.921875 -2.453125 4.785156 -1.695312 4.515625 -1.09375 C 4.128906 -0.238281 3.488281 0.1875 2.59375 0.1875 C 1.78125 0.1875 1.179688 -0.160156 0.796875 -0.859375 C 0.460938 -1.453125 0.296875 -2.238281 0.296875 -3.21875 C 0.296875 -3.976562 0.394531 -4.632812 0.59375 -5.1875 C 0.957031 -6.195312 1.625 -6.703125 2.59375 -6.703125 Z M 2.578125 -0.578125 C 3.015625 -0.578125 3.363281 -0.769531 3.625 -1.15625 C 3.882812 -1.550781 4.015625 -2.273438 4.015625 -3.328125 C 4.015625 -4.085938 3.921875 -4.710938 3.734375 -5.203125 C 3.546875 -5.703125 3.179688 -5.953125 2.640625 -5.953125 C 2.148438 -5.953125 1.789062 -5.71875 1.5625 -5.25 C 1.332031 -4.78125 1.21875 -4.09375 1.21875 -3.1875 C 1.21875 -2.5 1.289062 -1.945312 1.4375 -1.53125 C 1.65625 -0.894531 2.035156 -0.578125 2.578125 -0.578125 Z M 2.578125 -0.578125 "/>
</g>
<g id="glyph-0-2">
<path d="M 0.703125 -6.875 L 2.046875 -6.875 L 4.015625 -1.0625 L 5.984375 -6.875 L 7.296875 -6.875 L 7.296875 0 L 6.421875 0 L 6.421875 -4.0625 C 6.421875 -4.195312 6.421875 -4.425781 6.421875 -4.75 C 6.429688 -5.082031 6.4375 -5.429688 6.4375 -5.796875 L 4.46875 0 L 3.546875 0 L 1.578125 -5.796875 L 1.578125 -5.59375 C 1.578125 -5.425781 1.578125 -5.171875 1.578125 -4.828125 C 1.585938 -4.484375 1.59375 -4.226562 1.59375 -4.0625 L 1.59375 0 L 0.703125 0 Z M 0.703125 -6.875 "/>
</g>
<g id="glyph-0-3">
<path d="M 1.265625 -1.328125 C 1.265625 -1.085938 1.351562 -0.894531 1.53125 -0.75 C 1.707031 -0.613281 1.921875 -0.546875 2.171875 -0.546875 C 2.460938 -0.546875 2.75 -0.613281 3.03125 -0.75 C 3.5 -0.976562 3.734375 -1.351562 3.734375 -1.875 L 3.734375 -2.546875 C 3.628906 -2.484375 3.492188 -2.429688 3.328125 -2.390625 C 3.171875 -2.347656 3.015625 -2.316406 2.859375 -2.296875 L 2.34375 -2.234375 C 2.039062 -2.191406 1.8125 -2.125 1.65625 -2.03125 C 1.394531 -1.882812 1.265625 -1.648438 1.265625 -1.328125 Z M 3.3125 -3.046875 C 3.5 -3.066406 3.628906 -3.144531 3.703125 -3.28125 C 3.734375 -3.351562 3.75 -3.460938 3.75 -3.609375 C 3.75 -3.890625 3.644531 -4.09375 3.4375 -4.21875 C 3.238281 -4.351562 2.945312 -4.421875 2.5625 -4.421875 C 2.125 -4.421875 1.8125 -4.304688 1.625 -4.078125 C 1.519531 -3.941406 1.453125 -3.742188 1.421875 -3.484375 L 0.640625 -3.484375 C 0.660156 -4.097656 0.863281 -4.523438 1.25 -4.765625 C 1.632812 -5.015625 2.078125 -5.140625 2.578125 -5.140625 C 3.171875 -5.140625 3.65625 -5.023438 4.03125 -4.796875 C 4.394531 -4.578125 4.578125 -4.226562 4.578125 -3.75 L 4.578125 -0.859375 C 4.578125 -0.773438 4.59375 -0.707031 4.625 -0.65625 C 4.664062 -0.601562 4.742188 -0.578125 4.859375 -0.578125 C 4.890625 -0.578125 4.925781 -0.578125 4.96875 -0.578125 C 5.019531 -0.578125 5.070312 -0.582031 5.125 -0.59375 L 5.125 0.015625 C 5 0.0546875 4.898438 0.0820312 4.828125 0.09375 C 4.765625 0.101562 4.671875 0.109375 4.546875 0.109375 C 4.253906 0.109375 4.046875 0.00390625 3.921875 -0.203125 C 3.847656 -0.304688 3.796875 -0.460938 3.765625 -0.671875 C 3.597656 -0.441406 3.351562 -0.242188 3.03125 -0.078125 C 2.707031 0.0859375 2.351562 0.171875 1.96875 0.171875 C 1.5 0.171875 1.117188 0.0273438 0.828125 -0.25 C 0.535156 -0.53125 0.390625 -0.882812 0.390625 -1.3125 C 0.390625 -1.78125 0.53125 -2.140625 0.8125 -2.390625 C 1.101562 -2.648438 1.488281 -2.8125 1.96875 -2.875 Z M 2.609375 -5.140625 Z M 2.609375 -5.140625 "/>
</g>
<g id="glyph-0-4">
<path d="M 0.640625 -5.015625 L 1.4375 -5.015625 L 1.4375 -4.15625 C 1.507812 -4.320312 1.671875 -4.523438 1.921875 -4.765625 C 2.179688 -5.003906 2.476562 -5.125 2.8125 -5.125 C 2.820312 -5.125 2.847656 -5.125 2.890625 -5.125 C 2.929688 -5.125 2.992188 -5.117188 3.078125 -5.109375 L 3.078125 -4.21875 C 3.023438 -4.226562 2.976562 -4.234375 2.9375 -4.234375 C 2.894531 -4.234375 2.851562 -4.234375 2.8125 -4.234375 C 2.382812 -4.234375 2.054688 -4.097656 1.828125 -3.828125 C 1.597656 -3.554688 1.484375 -3.242188 1.484375 -2.890625 L 1.484375 0 L 0.640625 0 Z M 0.640625 -5.015625 "/>
</g>
<g id="glyph-0-5">
<path d="M 3.75 -5.015625 L 4.6875 -5.015625 C 4.5625 -4.691406 4.296875 -3.957031 3.890625 -2.8125 C 3.585938 -1.945312 3.332031 -1.242188 3.125 -0.703125 C 2.632812 0.574219 2.289062 1.359375 2.09375 1.640625 C 1.894531 1.921875 1.550781 2.0625 1.0625 2.0625 C 0.945312 2.0625 0.851562 2.054688 0.78125 2.046875 C 0.71875 2.035156 0.640625 2.015625 0.546875 1.984375 L 0.546875 1.21875 C 0.691406 1.257812 0.796875 1.285156 0.859375 1.296875 C 0.929688 1.304688 0.992188 1.3125 1.046875 1.3125 C 1.203125 1.3125 1.316406 1.285156 1.390625 1.234375 C 1.460938 1.179688 1.523438 1.117188 1.578125 1.046875 C 1.585938 1.015625 1.640625 0.882812 1.734375 0.65625 C 1.835938 0.425781 1.910156 0.253906 1.953125 0.140625 L 0.09375 -5.015625 L 1.046875 -5.015625 L 2.40625 -0.9375 Z M 2.390625 -5.140625 Z M 2.390625 -5.140625 "/>
</g>
<g id="glyph-0-6">
<path d="M 4.109375 -2.046875 C 4.109375 -1.472656 4.019531 -1.023438 3.84375 -0.703125 C 3.53125 -0.109375 2.925781 0.1875 2.03125 0.1875 C 1.519531 0.1875 1.078125 0.0429688 0.703125 -0.234375 C 0.335938 -0.515625 0.15625 -1.015625 0.15625 -1.734375 L 0.15625 -2.21875 L 1.046875 -2.21875 L 1.046875 -1.734375 C 1.046875 -1.359375 1.128906 -1.070312 1.296875 -0.875 C 1.460938 -0.6875 1.722656 -0.59375 2.078125 -0.59375 C 2.566406 -0.59375 2.890625 -0.765625 3.046875 -1.109375 C 3.140625 -1.316406 3.1875 -1.710938 3.1875 -2.296875 L 3.1875 -6.875 L 4.109375 -6.875 Z M 4.109375 -2.046875 "/>
</g>
<g id="glyph-0-7">
<path d="M 1.46875 -5.015625 L 1.46875 -1.6875 C 1.46875 -1.425781 1.503906 -1.21875 1.578125 -1.0625 C 1.734375 -0.757812 2.015625 -0.609375 2.421875 -0.609375 C 3.003906 -0.609375 3.40625 -0.867188 3.625 -1.390625 C 3.738281 -1.671875 3.796875 -2.054688 3.796875 -2.546875 L 3.796875 -5.015625 L 4.640625 -5.015625 L 4.640625 0 L 3.84375 0 L 3.84375 -0.734375 C 3.738281 -0.546875 3.601562 -0.382812 3.4375 -0.25 C 3.113281 0.0078125 2.722656 0.140625 2.265625 0.140625 C 1.554688 0.140625 1.070312 -0.0976562 0.8125 -0.578125 C 0.664062 -0.835938 0.59375 -1.179688 0.59375 -1.609375 L 0.59375 -5.015625 Z M 2.625 -5.140625 Z M 2.625 -5.140625 "/>
</g>
<g id="glyph-0-8">
<path d="M 0.640625 -6.875 L 1.484375 -6.875 L 1.484375 0 L 0.640625 0 Z M 0.640625 -6.875 "/>
</g>
<g id="glyph-0-9">
<path d="M 1.34375 -2.21875 C 1.363281 -1.832031 1.453125 -1.515625 1.609375 -1.265625 C 1.921875 -0.804688 2.46875 -0.578125 3.25 -0.578125 C 3.601562 -0.578125 3.921875 -0.628906 4.203125 -0.734375 C 4.765625 -0.929688 5.046875 -1.28125 5.046875 -1.78125 C 5.046875 -2.15625 4.925781 -2.421875 4.6875 -2.578125 C 4.445312 -2.734375 4.078125 -2.867188 3.578125 -2.984375 L 2.640625 -3.1875 C 2.035156 -3.332031 1.601562 -3.488281 1.34375 -3.65625 C 0.90625 -3.9375 0.6875 -4.363281 0.6875 -4.9375 C 0.6875 -5.550781 0.898438 -6.054688 1.328125 -6.453125 C 1.765625 -6.859375 2.375 -7.0625 3.15625 -7.0625 C 3.875 -7.0625 4.484375 -6.882812 4.984375 -6.53125 C 5.492188 -6.1875 5.75 -5.628906 5.75 -4.859375 L 4.875 -4.859375 C 4.820312 -5.234375 4.722656 -5.515625 4.578125 -5.703125 C 4.285156 -6.066406 3.800781 -6.25 3.125 -6.25 C 2.570312 -6.25 2.175781 -6.132812 1.9375 -5.90625 C 1.695312 -5.675781 1.578125 -5.40625 1.578125 -5.09375 C 1.578125 -4.757812 1.71875 -4.515625 2 -4.359375 C 2.1875 -4.253906 2.601562 -4.128906 3.25 -3.984375 L 4.21875 -3.765625 C 4.675781 -3.660156 5.035156 -3.515625 5.296875 -3.328125 C 5.734375 -3.003906 5.953125 -2.535156 5.953125 -1.921875 C 5.953125 -1.160156 5.671875 -0.613281 5.109375 -0.28125 C 4.554688 0.0390625 3.914062 0.203125 3.1875 0.203125 C 2.332031 0.203125 1.660156 -0.015625 1.171875 -0.453125 C 0.691406 -0.890625 0.457031 -1.476562 0.46875 -2.21875 Z M 3.21875 -7.0625 Z M 3.21875 -7.0625 "/>
</g>
<g id="glyph-0-10">
<path d="M 2.703125 -5.125 C 3.054688 -5.125 3.398438 -5.039062 3.734375 -4.875 C 4.078125 -4.707031 4.332031 -4.492188 4.5 -4.234375 C 4.675781 -3.972656 4.789062 -3.675781 4.84375 -3.34375 C 4.894531 -3.113281 4.921875 -2.742188 4.921875 -2.234375 L 1.234375 -2.234375 C 1.253906 -1.722656 1.375 -1.3125 1.59375 -1 C 1.820312 -0.695312 2.171875 -0.546875 2.640625 -0.546875 C 3.085938 -0.546875 3.441406 -0.691406 3.703125 -0.984375 C 3.847656 -1.148438 3.953125 -1.347656 4.015625 -1.578125 L 4.84375 -1.578125 C 4.820312 -1.390625 4.75 -1.179688 4.625 -0.953125 C 4.507812 -0.734375 4.375 -0.550781 4.21875 -0.40625 C 3.957031 -0.15625 3.640625 0.015625 3.265625 0.109375 C 3.054688 0.148438 2.828125 0.171875 2.578125 0.171875 C 1.953125 0.171875 1.421875 -0.0507812 0.984375 -0.5 C 0.554688 -0.957031 0.34375 -1.59375 0.34375 -2.40625 C 0.34375 -3.21875 0.5625 -3.875 1 -4.375 C 1.4375 -4.875 2.003906 -5.125 2.703125 -5.125 Z M 4.046875 -2.90625 C 4.015625 -3.269531 3.9375 -3.5625 3.8125 -3.78125 C 3.582031 -4.1875 3.195312 -4.390625 2.65625 -4.390625 C 2.269531 -4.390625 1.941406 -4.25 1.671875 -3.96875 C 1.410156 -3.695312 1.273438 -3.34375 1.265625 -2.90625 Z M 2.625 -5.140625 Z M 2.625 -5.140625 "/>
</g>
<g id="glyph-0-11">
<path d="M 2.734375 -0.5625 C 3.128906 -0.5625 3.457031 -0.726562 3.71875 -1.0625 C 3.976562 -1.394531 4.109375 -1.882812 4.109375 -2.53125 C 4.109375 -2.9375 4.050781 -3.28125 3.9375 -3.5625 C 3.71875 -4.125 3.316406 -4.40625 2.734375 -4.40625 C 2.148438 -4.40625 1.75 -4.109375 1.53125 -3.515625 C 1.414062 -3.203125 1.359375 -2.804688 1.359375 -2.328125 C 1.359375 -1.941406 1.414062 -1.613281 1.53125 -1.34375 C 1.75 -0.820312 2.148438 -0.5625 2.734375 -0.5625 Z M 0.546875 -5 L 1.375 -5 L 1.375 -4.328125 C 1.539062 -4.554688 1.722656 -4.734375 1.921875 -4.859375 C 2.210938 -5.046875 2.546875 -5.140625 2.921875 -5.140625 C 3.492188 -5.140625 3.976562 -4.921875 4.375 -4.484375 C 4.769531 -4.046875 4.96875 -3.425781 4.96875 -2.625 C 4.96875 -1.53125 4.679688 -0.75 4.109375 -0.28125 C 3.742188 0.0195312 3.320312 0.171875 2.84375 0.171875 C 2.46875 0.171875 2.148438 0.0859375 1.890625 -0.078125 C 1.742188 -0.171875 1.578125 -0.332031 1.390625 -0.5625 L 1.390625 2 L 0.546875 2 Z M 0.546875 -5 "/>
</g>
<g id="glyph-0-12">
<path d="M 0.734375 -6.875 L 1.828125 -6.875 L 5.3125 -1.3125 L 5.3125 -6.875 L 6.1875 -6.875 L 6.1875 0 L 5.140625 0 L 1.625 -5.5625 L 1.625 0 L 0.734375 0 Z M 3.40625 -6.875 Z M 3.40625 -6.875 "/>
</g>
<g id="glyph-0-13">
<path d="M 2.609375 -0.546875 C 3.171875 -0.546875 3.554688 -0.753906 3.765625 -1.171875 C 3.972656 -1.597656 4.078125 -2.070312 4.078125 -2.59375 C 4.078125 -3.0625 4 -3.441406 3.84375 -3.734375 C 3.601562 -4.191406 3.195312 -4.421875 2.625 -4.421875 C 2.101562 -4.421875 1.722656 -4.222656 1.484375 -3.828125 C 1.253906 -3.441406 1.140625 -2.96875 1.140625 -2.40625 C 1.140625 -1.875 1.253906 -1.429688 1.484375 -1.078125 C 1.722656 -0.722656 2.097656 -0.546875 2.609375 -0.546875 Z M 2.640625 -5.15625 C 3.285156 -5.15625 3.832031 -4.941406 4.28125 -4.515625 C 4.726562 -4.085938 4.953125 -3.453125 4.953125 -2.609375 C 4.953125 -1.804688 4.753906 -1.140625 4.359375 -0.609375 C 3.960938 -0.078125 3.351562 0.1875 2.53125 0.1875 C 1.84375 0.1875 1.296875 -0.046875 0.890625 -0.515625 C 0.484375 -0.984375 0.28125 -1.613281 0.28125 -2.40625 C 0.28125 -3.238281 0.492188 -3.90625 0.921875 -4.40625 C 1.347656 -4.90625 1.921875 -5.15625 2.640625 -5.15625 Z M 2.609375 -5.140625 Z M 2.609375 -5.140625 "/>
</g>
<g id="glyph-0-14">
<path d="M 1.03125 -5.015625 L 2.375 -0.9375 L 3.765625 -5.015625 L 4.6875 -5.015625 L 2.796875 0 L 1.90625 0 L 0.046875 -5.015625 Z M 1.03125 -5.015625 "/>
</g>
<g id="glyph-0-15">
<path d="M 0.625 -5.015625 L 1.421875 -5.015625 L 1.421875 -4.3125 C 1.660156 -4.601562 1.910156 -4.8125 2.171875 -4.9375 C 2.441406 -5.0625 2.738281 -5.125 3.0625 -5.125 C 3.769531 -5.125 4.25 -4.878906 4.5 -4.390625 C 4.632812 -4.117188 4.703125 -3.726562 4.703125 -3.21875 L 4.703125 0 L 3.84375 0 L 3.84375 -3.15625 C 3.84375 -3.46875 3.800781 -3.71875 3.71875 -3.90625 C 3.5625 -4.21875 3.289062 -4.375 2.90625 -4.375 C 2.695312 -4.375 2.53125 -4.351562 2.40625 -4.3125 C 2.175781 -4.238281 1.972656 -4.097656 1.796875 -3.890625 C 1.660156 -3.734375 1.570312 -3.566406 1.53125 -3.390625 C 1.488281 -3.210938 1.46875 -2.957031 1.46875 -2.625 L 1.46875 0 L 0.625 0 Z M 2.59375 -5.140625 Z M 2.59375 -5.140625 "/>
</g>
<g id="glyph-1-0">
<path d="M -8.609375 -0.921875 L -8.609375 -2.296875 L -1.640625 -6.640625 L -8.609375 -6.640625 L -8.609375 -7.75 L 0 -7.75 L 0 -6.4375 L -6.96875 -2.03125 L 0 -2.03125 L 0 -0.921875 Z M -8.609375 -4.25 Z M -8.609375 -4.25 "/>
</g>
<g id="glyph-1-1">
<path d="M -6.421875 -3.390625 C -6.421875 -3.835938 -6.316406 -4.269531 -6.109375 -4.6875 C -5.898438 -5.101562 -5.628906 -5.421875 -5.296875 -5.640625 C -4.972656 -5.847656 -4.601562 -5.988281 -4.1875 -6.0625 C -3.894531 -6.125 -3.429688 -6.15625 -2.796875 -6.15625 L -2.796875 -1.546875 C -2.160156 -1.566406 -1.648438 -1.71875 -1.265625 -2 C -0.878906 -2.28125 -0.6875 -2.71875 -0.6875 -3.3125 C -0.6875 -3.863281 -0.867188 -4.300781 -1.234375 -4.625 C -1.441406 -4.8125 -1.6875 -4.945312 -1.96875 -5.03125 L -1.96875 -6.0625 C -1.738281 -6.039062 -1.484375 -5.953125 -1.203125 -5.796875 C -0.921875 -5.640625 -0.6875 -5.46875 -0.5 -5.28125 C -0.1875 -4.957031 0.0195312 -4.554688 0.125 -4.078125 C 0.1875 -3.828125 0.21875 -3.539062 0.21875 -3.21875 C 0.21875 -2.4375 -0.0625 -1.773438 -0.625 -1.234375 C -1.195312 -0.691406 -1.992188 -0.421875 -3.015625 -0.421875 C -4.023438 -0.421875 -4.84375 -0.691406 -5.46875 -1.234375 C -6.101562 -1.785156 -6.421875 -2.503906 -6.421875 -3.390625 Z M -3.640625 -5.0625 C -4.097656 -5.019531 -4.460938 -4.921875 -4.734375 -4.765625 C -5.242188 -4.484375 -5.5 -4.003906 -5.5 -3.328125 C -5.5 -2.835938 -5.320312 -2.425781 -4.96875 -2.09375 C -4.625 -1.769531 -4.179688 -1.597656 -3.640625 -1.578125 Z M -6.421875 -3.28125 Z M -6.421875 -3.28125 "/>
</g>
<g id="glyph-1-2">
<path d="M -6.28125 -1.265625 L -1.328125 -2.46875 L -6.28125 -3.6875 L -6.28125 -4.875 L -1.359375 -6.109375 L -6.28125 -7.390625 L -6.28125 -8.4375 L 0 -6.625 L 0 -5.53125 L -4.859375 -4.25 L 0 -3.015625 L 0 -1.921875 L -6.28125 -0.109375 Z M -6.28125 -1.265625 "/>
</g>
<g id="glyph-1-3">
</g>
<g id="glyph-1-4">
<path d="M -6.453125 -3.1875 C -6.453125 -3.894531 -6.28125 -4.46875 -5.9375 -4.90625 C -5.59375 -5.351562 -5.003906 -5.625 -4.171875 -5.71875 L -4.171875 -4.6875 C -4.554688 -4.625 -4.875 -4.484375 -5.125 -4.265625 C -5.382812 -4.046875 -5.515625 -3.6875 -5.515625 -3.1875 C -5.515625 -2.519531 -5.1875 -2.039062 -4.53125 -1.75 C -4.101562 -1.5625 -3.578125 -1.46875 -2.953125 -1.46875 C -2.328125 -1.46875 -1.796875 -1.597656 -1.359375 -1.859375 C -0.929688 -2.128906 -0.71875 -2.550781 -0.71875 -3.125 C -0.71875 -3.5625 -0.851562 -3.90625 -1.125 -4.15625 C -1.394531 -4.414062 -1.757812 -4.59375 -2.21875 -4.6875 L -2.21875 -5.71875 C -1.382812 -5.601562 -0.773438 -5.3125 -0.390625 -4.84375 C -0.00390625 -4.375 0.1875 -3.773438 0.1875 -3.046875 C 0.1875 -2.222656 -0.113281 -1.566406 -0.71875 -1.078125 C -1.320312 -0.585938 -2.070312 -0.34375 -2.96875 -0.34375 C -4.070312 -0.34375 -4.925781 -0.609375 -5.53125 -1.140625 C -6.144531 -1.679688 -6.453125 -2.363281 -6.453125 -3.1875 Z M -6.421875 -3.03125 Z M -6.421875 -3.03125 "/>
</g>
<g id="glyph-1-5">
<path d="M -1.671875 -1.578125 C -1.367188 -1.578125 -1.128906 -1.6875 -0.953125 -1.90625 C -0.773438 -2.132812 -0.6875 -2.398438 -0.6875 -2.703125 C -0.6875 -3.078125 -0.769531 -3.4375 -0.9375 -3.78125 C -1.226562 -4.375 -1.695312 -4.671875 -2.34375 -4.671875 L -3.1875 -4.671875 C -3.113281 -4.535156 -3.046875 -4.363281 -2.984375 -4.15625 C -2.929688 -3.957031 -2.894531 -3.757812 -2.875 -3.5625 L -2.796875 -2.9375 C -2.742188 -2.550781 -2.660156 -2.257812 -2.546875 -2.0625 C -2.367188 -1.738281 -2.078125 -1.578125 -1.671875 -1.578125 Z M -3.796875 -4.140625 C -3.828125 -4.378906 -3.929688 -4.539062 -4.109375 -4.625 C -4.203125 -4.664062 -4.335938 -4.6875 -4.515625 -4.6875 C -4.867188 -4.6875 -5.125 -4.554688 -5.28125 -4.296875 C -5.445312 -4.046875 -5.53125 -3.6875 -5.53125 -3.21875 C -5.53125 -2.664062 -5.382812 -2.273438 -5.09375 -2.046875 C -4.925781 -1.910156 -4.679688 -1.820312 -4.359375 -1.78125 L -4.359375 -0.796875 C -5.128906 -0.816406 -5.664062 -1.066406 -5.96875 -1.546875 C -6.269531 -2.035156 -6.421875 -2.597656 -6.421875 -3.234375 C -6.421875 -3.972656 -6.28125 -4.570312 -6 -5.03125 C -5.71875 -5.488281 -5.28125 -5.71875 -4.6875 -5.71875 L -1.078125 -5.71875 C -0.972656 -5.71875 -0.882812 -5.738281 -0.8125 -5.78125 C -0.75 -5.832031 -0.71875 -5.929688 -0.71875 -6.078125 C -0.71875 -6.117188 -0.71875 -6.164062 -0.71875 -6.21875 C -0.726562 -6.28125 -0.738281 -6.347656 -0.75 -6.421875 L 0.03125 -6.421875 C 0.0703125 -6.253906 0.0976562 -6.125 0.109375 -6.03125 C 0.128906 -5.945312 0.140625 -5.832031 0.140625 -5.6875 C 0.140625 -5.320312 0.0078125 -5.0625 -0.25 -4.90625 C -0.382812 -4.8125 -0.578125 -4.75 -0.828125 -4.71875 C -0.546875 -4.5 -0.300781 -4.1875 -0.09375 -3.78125 C 0.113281 -3.382812 0.21875 -2.945312 0.21875 -2.46875 C 0.21875 -1.882812 0.0390625 -1.40625 -0.3125 -1.03125 C -0.664062 -0.664062 -1.109375 -0.484375 -1.640625 -0.484375 C -2.222656 -0.484375 -2.675781 -0.664062 -3 -1.03125 C -3.320312 -1.394531 -3.519531 -1.867188 -3.59375 -2.453125 Z M -6.421875 -3.265625 Z M -6.421875 -3.265625 "/>
</g>
<g id="glyph-1-6">
<path d="M -1.96875 -1.40625 C -1.613281 -1.4375 -1.34375 -1.523438 -1.15625 -1.671875 C -0.820312 -1.929688 -0.65625 -2.390625 -0.65625 -3.046875 C -0.65625 -3.441406 -0.738281 -3.785156 -0.90625 -4.078125 C -1.070312 -4.378906 -1.332031 -4.53125 -1.6875 -4.53125 C -1.957031 -4.53125 -2.164062 -4.410156 -2.3125 -4.171875 C -2.394531 -4.015625 -2.492188 -3.710938 -2.609375 -3.265625 L -2.8125 -2.421875 C -2.945312 -1.890625 -3.097656 -1.5 -3.265625 -1.25 C -3.546875 -0.789062 -3.941406 -0.5625 -4.453125 -0.5625 C -5.046875 -0.5625 -5.523438 -0.773438 -5.890625 -1.203125 C -6.253906 -1.628906 -6.4375 -2.207031 -6.4375 -2.9375 C -6.4375 -3.875 -6.160156 -4.550781 -5.609375 -4.96875 C -5.253906 -5.238281 -4.875 -5.367188 -4.46875 -5.359375 L -4.46875 -4.359375 C -4.707031 -4.335938 -4.925781 -4.253906 -5.125 -4.109375 C -5.394531 -3.867188 -5.53125 -3.445312 -5.53125 -2.84375 C -5.53125 -2.445312 -5.453125 -2.144531 -5.296875 -1.9375 C -5.148438 -1.738281 -4.953125 -1.640625 -4.703125 -1.640625 C -4.429688 -1.640625 -4.210938 -1.773438 -4.046875 -2.046875 C -3.953125 -2.203125 -3.867188 -2.429688 -3.796875 -2.734375 L -3.625 -3.421875 C -3.4375 -4.179688 -3.257812 -4.691406 -3.09375 -4.953125 C -2.820312 -5.359375 -2.394531 -5.5625 -1.8125 -5.5625 C -1.257812 -5.5625 -0.78125 -5.347656 -0.375 -4.921875 C 0.0273438 -4.503906 0.234375 -3.863281 0.234375 -3 C 0.234375 -2.0625 0.0234375 -1.394531 -0.390625 -1 C -0.816406 -0.613281 -1.34375 -0.410156 -1.96875 -0.390625 Z M -6.421875 -2.953125 Z M -6.421875 -2.953125 "/>
</g>
<g id="glyph-1-7">
<path d="M 1.21875 -1 C 1.175781 -1.269531 0.988281 -1.457031 0.65625 -1.5625 C 0.476562 -1.625 0.304688 -1.65625 0.140625 -1.65625 C 0.117188 -1.65625 0.0976562 -1.648438 0.078125 -1.640625 C 0.0546875 -1.640625 0.03125 -1.640625 0 -1.640625 L 0 -1 L -1.28125 -1 L -1.28125 -2.25 L -0.09375 -2.25 C 0.375 -2.25 0.78125 -2.15625 1.125 -1.96875 C 1.476562 -1.78125 1.695312 -1.457031 1.78125 -1 Z M 1.21875 -1 "/>
</g>
<g id="glyph-1-8">
<path d="M -6.28125 -1.296875 L -1.171875 -2.96875 L -6.28125 -4.71875 L -6.28125 -5.875 L 0 -3.5 L 0 -2.375 L -6.28125 -0.0625 Z M -6.28125 -1.296875 "/>
</g>
<g id="glyph-1-9">
<path d="M -6.28125 -0.78125 L -6.28125 -1.78125 L -5.390625 -1.78125 C -5.753906 -2.070312 -6.015625 -2.382812 -6.171875 -2.71875 C -6.335938 -3.050781 -6.421875 -3.421875 -6.421875 -3.828125 C -6.421875 -4.710938 -6.109375 -5.3125 -5.484375 -5.625 C -5.140625 -5.800781 -4.65625 -5.890625 -4.03125 -5.890625 L 0 -5.890625 L 0 -4.8125 L -3.953125 -4.8125 C -4.335938 -4.8125 -4.644531 -4.753906 -4.875 -4.640625 C -5.269531 -4.453125 -5.46875 -4.113281 -5.46875 -3.625 C -5.46875 -3.375 -5.441406 -3.171875 -5.390625 -3.015625 C -5.304688 -2.722656 -5.132812 -2.46875 -4.875 -2.25 C -4.664062 -2.070312 -4.453125 -1.957031 -4.234375 -1.90625 C -4.015625 -1.851562 -3.695312 -1.828125 -3.28125 -1.828125 L 0 -1.828125 L 0 -0.78125 Z M -6.421875 -3.25 Z M -6.421875 -3.25 "/>
</g>
<g id="glyph-1-10">
<path d="M -3.890625 -0.5 L -3.890625 -3.4375 L -2.796875 -3.4375 L -2.796875 -0.5 Z M -3.890625 -0.5 "/>
</g>
<g id="glyph-1-11">
<path d="M -3.0625 -1.4375 C -2.394531 -1.4375 -1.832031 -1.578125 -1.375 -1.859375 C -0.925781 -2.148438 -0.703125 -2.609375 -0.703125 -3.234375 C -0.703125 -3.722656 -0.910156 -4.125 -1.328125 -4.4375 C -1.742188 -4.757812 -2.347656 -4.921875 -3.140625 -4.921875 C -3.929688 -4.921875 -4.515625 -4.753906 -4.890625 -4.421875 C -5.273438 -4.097656 -5.46875 -3.703125 -5.46875 -3.234375 C -5.46875 -2.703125 -5.265625 -2.269531 -4.859375 -1.9375 C -4.453125 -1.601562 -3.851562 -1.4375 -3.0625 -1.4375 Z M -6.390625 -3.03125 C -6.390625 -3.507812 -6.285156 -3.910156 -6.078125 -4.234375 C -5.960938 -4.421875 -5.757812 -4.632812 -5.46875 -4.875 L -8.640625 -4.875 L -8.640625 -5.890625 L 0 -5.890625 L 0 -4.9375 L -0.875 -4.9375 C -0.488281 -4.695312 -0.207031 -4.40625 -0.03125 -4.0625 C 0.132812 -3.726562 0.21875 -3.34375 0.21875 -2.90625 C 0.21875 -2.207031 -0.0703125 -1.601562 -0.65625 -1.09375 C -1.25 -0.582031 -2.03125 -0.328125 -3 -0.328125 C -3.914062 -0.328125 -4.707031 -0.5625 -5.375 -1.03125 C -6.050781 -1.5 -6.390625 -2.164062 -6.390625 -3.03125 Z M -6.390625 -3.03125 "/>
</g>
<g id="glyph-1-12">
<path d="M -6.28125 -4.6875 L -6.28125 -5.859375 C -5.875 -5.710938 -4.953125 -5.382812 -3.515625 -4.875 C -2.441406 -4.488281 -1.566406 -4.164062 -0.890625 -3.90625 C 0.710938 -3.300781 1.691406 -2.875 2.046875 -2.625 C 2.398438 -2.375 2.578125 -1.941406 2.578125 -1.328125 C 2.578125 -1.179688 2.566406 -1.066406 2.546875 -0.984375 C 2.535156 -0.910156 2.515625 -0.8125 2.484375 -0.6875 L 1.53125 -0.6875 C 1.582031 -0.875 1.613281 -1.007812 1.625 -1.09375 C 1.632812 -1.175781 1.640625 -1.25 1.640625 -1.3125 C 1.640625 -1.5 1.609375 -1.640625 1.546875 -1.734375 C 1.484375 -1.828125 1.40625 -1.90625 1.3125 -1.96875 C 1.28125 -1.988281 1.117188 -2.054688 0.828125 -2.171875 C 0.535156 -2.296875 0.320312 -2.382812 0.1875 -2.4375 L -6.28125 -0.125 L -6.28125 -1.3125 L -1.171875 -3 Z M -6.421875 -3 Z M -6.421875 -3 "/>
</g>
<g id="glyph-1-13">
<path d="M -6.28125 -0.78125 L -6.28125 -1.8125 L -5.390625 -1.8125 C -5.691406 -2.0625 -5.914062 -2.289062 -6.0625 -2.5 C -6.300781 -2.84375 -6.421875 -3.238281 -6.421875 -3.6875 C -6.421875 -4.1875 -6.296875 -4.585938 -6.046875 -4.890625 C -5.910156 -5.054688 -5.703125 -5.210938 -5.421875 -5.359375 C -5.765625 -5.585938 -6.015625 -5.859375 -6.171875 -6.171875 C -6.335938 -6.492188 -6.421875 -6.851562 -6.421875 -7.25 C -6.421875 -8.09375 -6.113281 -8.664062 -5.5 -8.96875 C -5.175781 -9.132812 -4.734375 -9.21875 -4.171875 -9.21875 L 0 -9.21875 L 0 -8.125 L -4.359375 -8.125 C -4.773438 -8.125 -5.0625 -8.019531 -5.21875 -7.8125 C -5.375 -7.601562 -5.453125 -7.347656 -5.453125 -7.046875 C -5.453125 -6.628906 -5.3125 -6.269531 -5.03125 -5.96875 C -4.757812 -5.675781 -4.300781 -5.53125 -3.65625 -5.53125 L 0 -5.53125 L 0 -4.453125 L -4.09375 -4.453125 C -4.519531 -4.453125 -4.832031 -4.398438 -5.03125 -4.296875 C -5.320312 -4.140625 -5.46875 -3.84375 -5.46875 -3.40625 C -5.46875 -3.007812 -5.3125 -2.644531 -5 -2.3125 C -4.695312 -1.988281 -4.140625 -1.828125 -3.328125 -1.828125 L 0 -1.828125 L 0 -0.78125 Z M -6.28125 -0.78125 "/>
</g>
</g>
<clipPath id="clip-0">
<path clip-rule="nonzero" d="M 46.964844 268 L 498.023438 268 L 498.023438 270 L 46.964844 270 Z M 46.964844 268 "/>
</clipPath>
<clipPath id="clip-1">
<path clip-rule="nonzero" d="M 46.964844 185 L 498.023438 185 L 498.023438 186 L 46.964844 186 Z M 46.964844 185 "/>
</clipPath>
<clipPath id="clip-2">
<path clip-rule="nonzero" d="M 46.964844 101 L 498.023438 101 L 498.023438 103 L 46.964844 103 Z M 46.964844 101 "/>
</clipPath>
<clipPath id="clip-3">
<path clip-rule="nonzero" d="M 46.964844 18 L 498.023438 18 L 498.023438 20 L 46.964844 20 Z M 46.964844 18 "/>
</clipPath>
<clipPath id="clip-4">
<path clip-rule="nonzero" d="M 113 5.976562 L 115 5.976562 L 115 281.632812 L 113 281.632812 Z M 113 5.976562 "/>
</clipPath>
<clipPath id="clip-5">
<path clip-rule="nonzero" d="M 186 5.976562 L 187 5.976562 L 187 281.632812 L 186 281.632812 Z M 186 5.976562 "/>
</clipPath>
<clipPath id="clip-6">
<path clip-rule="nonzero" d="M 259 5.976562 L 260 5.976562 L 260 281.632812 L 259 281.632812 Z M 259 5.976562 "/>
</clipPath>
<clipPath id="clip-7">
<path clip-rule="nonzero" d="M 332 5.976562 L 334 5.976562 L 334 281.632812 L 332 281.632812 Z M 332 5.976562 "/>
</clipPath>
<clipPath id="clip-8">
<path clip-rule="nonzero" d="M 405 5.976562 L 407 5.976562 L 407 281.632812 L 405 281.632812 Z M 405 5.976562 "/>
</clipPath>
<clipPath id="clip-9">
<path clip-rule="nonzero" d="M 478 5.976562 L 480 5.976562 L 480 281.632812 L 478 281.632812 Z M 478 5.976562 "/>
</clipPath>
</defs>
<rect x="-50.4" y="-30.2" width="604.8" height="362.4" fill="rgb(100%, 100%, 100%)" fill-opacity="1"/>
<rect x="-50.4" y="-30.2" width="604.8" height="362.4" fill="rgb(100%, 100%, 100%)" fill-opacity="1"/>
<g clip-path="url(#clip-0)">
<path fill="none" stroke-width="0.640187" stroke-linecap="butt" stroke-linejoin="round" stroke="rgb(86.666667%, 89.019608%, 91.764706%)" stroke-opacity="1" stroke-miterlimit="10" d="M 46.964844 269.101562 L 498.023438 269.101562 "/>
</g>
<g clip-path="url(#clip-1)">
<path fill="none" stroke-width="0.640187" stroke-linecap="butt" stroke-linejoin="round" stroke="rgb(86.666667%, 89.019608%, 91.764706%)" stroke-opacity="1" stroke-miterlimit="10" d="M 46.964844 185.632812 L 498.023438 185.632812 "/>
</g>
<g clip-path="url(#clip-2)">
<path fill="none" stroke-width="0.640187" stroke-linecap="butt" stroke-linejoin="round" stroke="rgb(86.666667%, 89.019608%, 91.764706%)" stroke-opacity="1" stroke-miterlimit="10" d="M 46.964844 102.164062 L 498.023438 102.164062 "/>
</g>
<g clip-path="url(#clip-3)">
<path fill="none" stroke-width="0.640187" stroke-linecap="butt" stroke-linejoin="round" stroke="rgb(86.666667%, 89.019608%, 91.764706%)" stroke-opacity="1" stroke-miterlimit="10" d="M 46.964844 18.691406 L 498.023438 18.691406 "/>
</g>
<g clip-path="url(#clip-4)">
<path fill="none" stroke-width="0.640187" stroke-linecap="butt" stroke-linejoin="round" stroke="rgb(86.666667%, 89.019608%, 91.764706%)" stroke-opacity="1" stroke-miterlimit="10" d="M 113.957031 281.632812 L 113.957031 5.976562 "/>
</g>
<g clip-path="url(#clip-5)">
<path fill="none" stroke-width="0.640187" stroke-linecap="butt" stroke-linejoin="round" stroke="rgb(86.666667%, 89.019608%, 91.764706%)" stroke-opacity="1" stroke-miterlimit="10" d="M 186.667969 281.632812 L 186.667969 5.976562 "/>
</g>
<g clip-path="url(#clip-6)">
<path fill="none" stroke-width="0.640187" stroke-linecap="butt" stroke-linejoin="round" stroke="rgb(86.666667%, 89.019608%, 91.764706%)" stroke-opacity="1" stroke-miterlimit="10" d="M 259.382812 281.632812 L 259.382812 5.976562 "/>
</g>
<g clip-path="url(#clip-7)">
<path fill="none" stroke-width="0.640187" stroke-linecap="butt" stroke-linejoin="round" stroke="rgb(86.666667%, 89.019608%, 91.764706%)" stroke-opacity="1" stroke-miterlimit="10" d="M 333.285156 281.632812 L 333.285156 5.976562 "/>
</g>
<g clip-path="url(#clip-8)">
<path fill="none" stroke-width="0.640187" stroke-linecap="butt" stroke-linejoin="round" stroke="rgb(86.666667%, 89.019608%, 91.764706%)" stroke-opacity="1" stroke-miterlimit="10" d="M 406 281.632812 L 406 5.976562 "/>
</g>
<g clip-path="url(#clip-9)">
<path fill="none" stroke-width="0.640187" stroke-linecap="butt" stroke-linejoin="round" stroke="rgb(86.666667%, 89.019608%, 91.764706%)" stroke-opacity="1" stroke-miterlimit="10" d="M 478.710938 281.632812 L 478.710938 5.976562 "/>
</g>
<path fill="none" stroke-width="1.49377" stroke-linecap="butt" stroke-linejoin="round" stroke="rgb(0%, 23.921569%, 48.627451%)" stroke-opacity="1" stroke-miterlimit="10" d="M 74.617188 269.101562 L 75.8125 269.101562 L 77.003906 259.992188 L 78.195312 256.171875 L 79.386719 246.664062 L 80.578125 243.976562 L 81.769531 246.664062 L 82.964844 236.9375 L 84.15625 229.277344 L 85.347656 234.867188 L 86.539062 236.9375 L 87.730469 236.9375 L 88.921875 227.589844 L 90.113281 220.167969 L 91.308594 225.980469 L 92.5 227.589844 L 93.691406 216.347656 L 94.882812 208.746094 L 96.074219 206.835938 L 97.265625 210.761719 L 98.460938 214.007812 L 99.652344 211.8125 L 100.84375 211.8125 L 102.035156 221.535156 L 103.226562 234.867188 L 104.417969 246.664062 L 105.609375 243.976562 L 106.804688 249.566406 L 107.996094 256.171875 L 109.1875 259.992188 L 110.378906 259.992188 L 111.570312 264.261719 L 112.761719 236.9375 L 113.957031 236.9375 L 115.148438 232.90625 L 116.339844 232.90625 L 117.53125 236.9375 L 118.722656 224.4375 L 119.914062 208.746094 L 121.109375 209.738281 L 122.300781 202.464844 L 123.492188 204.152344 L 124.683594 197.832031 L 125.875 186.683594 L 127.066406 190.621094 L 128.257812 185.632812 L 129.453125 183.617188 L 130.644531 182.652344 L 131.835938 175.335938 L 133.027344 170.589844 L 134.21875 161.824219 L 135.410156 154.113281 L 136.605469 150.402344 L 137.796875 144.121094 L 138.988281 142.667969 L 140.179688 137.238281 L 141.371094 133.859375 L 142.5625 130.765625 L 143.753906 128.554688 L 144.949219 127.601562 L 146.140625 125.277344 L 147.332031 123.460938 L 148.523438 125.277344 L 149.714844 125.472656 L 150.90625 125.375 L 152.101562 125.671875 L 153.292969 124.117188 L 154.484375 123.648438 L 155.675781 116.992188 L 156.867188 114.652344 L 158.058594 110.578125 L 159.25 106.386719 L 160.445312 94.660156 L 161.636719 89.453125 L 162.828125 85.449219 L 164.019531 81.9375 L 165.210938 73.511719 L 166.402344 68.515625 L 167.597656 62.753906 L 168.789062 55.773438 L 169.980469 50.117188 L 171.171875 41.875 L 172.363281 38.476562 L 173.554688 30.203125 L 174.75 25.058594 L 175.941406 21.703125 L 177.132812 20.007812 L 178.324219 18.5625 L 179.515625 20.277344 L 180.707031 18.507812 L 181.898438 21.890625 L 183.09375 25.347656 L 184.285156 27.4375 L 185.476562 30.957031 L 186.667969 30.703125 L 187.859375 31.957031 L 189.050781 34.0625 L 190.246094 35.898438 L 191.4375 35.042969 L 192.628906 34.253906 L 193.820312 32.597656 L 195.011719 33.867188 L 196.203125 31.535156 L 197.394531 29.953125 L 198.589844 30.574219 L 199.78125 29.046875 L 200.972656 29.832031 L 202.164062 29.753906 L 203.355469 29.582031 L 204.546875 31.652344 L 205.742188 33.117188 L 206.933594 34.542969 L 208.125 37.882812 L 209.316406 38.816406 L 210.507812 41.667969 L 211.699219 43.460938 L 212.890625 41.6875 L 214.085938 43.019531 L 215.277344 42.628906 L 216.46875 43.316406 L 217.660156 43.695312 L 218.851562 44.480469 L 220.042969 44.511719 L 221.238281 45.976562 L 222.429688 46.304688 L 223.621094 45.601562 L 224.8125 43.894531 L 226.003906 43.519531 L 227.195312 42.070312 L 228.390625 45.703125 L 229.582031 47.511719 L 230.773438 49.09375 L 231.964844 49.359375 L 233.15625 53.523438 L 234.347656 55.15625 L 235.539062 56.527344 L 236.734375 53.671875 L 237.925781 53.632812 L 239.117188 53.308594 L 240.308594 55.699219 L 241.5 56.675781 L 242.691406 59.820312 L 243.886719 62.582031 L 245.078125 68.636719 L 246.269531 71.390625 L 247.460938 74.753906 L 248.652344 74.65625 L 249.84375 75.441406 L 251.035156 76.855469 L 252.230469 80.769531 L 253.421875 78.625 L 254.613281 76.703125 L 255.804688 77.980469 L 256.996094 78.410156 L 258.1875 75.144531 L 259.382812 74.558594 L 260.574219 72.789062 L 261.765625 73.960938 L 262.957031 76.574219 L 264.148438 78.597656 L 265.339844 79.113281 L 266.535156 81.640625 L 267.726562 83.355469 L 268.917969 85.351562 L 270.109375 84.644531 L 271.300781 85.15625 L 272.492188 83.820312 L 273.683594 79.722656 L 274.878906 74.777344 L 276.070312 72.652344 L 277.261719 69.933594 L 278.453125 67.148438 L 279.644531 66.503906 L 280.835938 65.007812 L 282.03125 68.90625 L 283.222656 67.84375 L 284.414062 66.621094 L 285.605469 64.617188 L 286.796875 65.546875 L 287.988281 60.113281 L 289.179688 56.648438 L 290.375 51.871094 L 291.566406 52.390625 L 292.757812 52.078125 L 293.949219 53.082031 L 295.140625 51.523438 L 296.332031 54.261719 L 297.527344 56.660156 L 298.71875 60.4375 L 299.910156 61.5 L 301.101562 52.921875 L 302.292969 52.617188 L 303.484375 54.707031 L 304.675781 57.242188 L 305.871094 59.371094 L 307.0625 59.980469 L 308.253906 63.980469 L 309.445312 84.453125 L 310.636719 91.398438 L 311.828125 98.101562 L 313.023438 100.542969 L 314.214844 105.242188 L 315.40625 111.171875 L 316.597656 108.667969 L 317.789062 105.640625 L 318.980469 107.628906 L 320.175781 105.640625 L 321.367188 107.449219 L 322.558594 107.390625 L 323.75 109.867188 L 324.941406 114.578125 L 326.132812 117.070312 L 327.324219 116.371094 L 328.519531 118.179688 L 329.710938 118.097656 L 330.902344 120.855469 L 332.09375 121.730469 L 333.285156 120.941406 L 334.476562 125.769531 L 335.671875 128.769531 L 336.863281 135.121094 L 338.054688 137.375 L 339.246094 139.34375 L 340.4375 142.195312 L 341.628906 141.117188 L 342.820312 132.160156 L 344.015625 130.425781 L 345.207031 125.570312 L 346.398438 124.789062 L 347.589844 123.929688 L 348.78125 121.554688 L 349.972656 122.722656 L 351.167969 127.5 L 352.359375 132.519531 L 353.550781 142.828125 L 354.742188 147.394531 L 355.933594 153.46875 L 357.125 157.523438 L 358.316406 160.765625 L 359.511719 164.613281 L 360.703125 165.496094 L 361.894531 165.496094 L 363.085938 164.039062 L 364.277344 164.90625 L 365.46875 169.578125 L 366.664062 167.636719 L 367.855469 164.324219 L 369.046875 163.191406 L 370.238281 163.472656 L 371.429688 167.636719 L 372.621094 168.59375 L 373.816406 171.28125 L 375.007812 177.335938 L 376.199219 183.132812 L 377.390625 188.320312 L 378.582031 188.320312 L 379.773438 187.765625 L 380.964844 188.882812 L 382.160156 190.621094 L 383.351562 195.039062 L 384.542969 198.5625 L 385.734375 203.296875 L 386.925781 204.152344 L 388.117188 207.777344 L 389.3125 210.761719 L 390.503906 210.761719 L 391.695312 208.746094 L 392.886719 202.464844 L 394.078125 198.5625 L 395.269531 197.832031 L 396.460938 190.621094 L 397.65625 191.832031 L 398.847656 192.449219 L 400.039062 191.832031 L 401.230469 195.039062 L 402.421875 195.71875 L 403.613281 196.410156 L 404.808594 197.832031 L 406 198.5625 L 407.191406 200.074219 L 408.382812 198.5625 L 410.765625 198.5625 L 411.957031 202.464844 L 413.152344 206.835938 L 414.34375 208.746094 L 415.535156 202.464844 L 416.726562 202.464844 L 417.917969 194.375 L 419.109375 191.832031 L 420.304688 187.222656 L 421.496094 190.03125 L 422.6875 189.453125 L 423.878906 191.222656 L 425.070312 193.082031 L 426.261719 202.464844 L 427.457031 208.746094 L 428.648438 217.578125 L 429.839844 214.007812 L 431.03125 205.023438 L 432.222656 205.023438 L 433.414062 195.71875 L 434.605469 194.375 L 435.800781 193.722656 L 436.992188 193.722656 L 438.183594 193.082031 L 439.375 195.71875 L 440.566406 195.71875 L 441.757812 201.648438 L 442.953125 205.917969 L 444.144531 202.464844 L 445.335938 203.296875 L 446.527344 197.832031 L 447.71875 200.074219 L 448.910156 194.375 L 450.101562 193.082031 L 451.296875 190.621094 L 452.488281 192.449219 L 453.679688 189.453125 L 454.871094 192.449219 L 456.0625 191.222656 L 457.253906 196.410156 L 458.449219 193.722656 L 459.640625 190.03125 L 460.832031 180.792969 L 462.023438 180.34375 L 463.214844 176.523438 L 464.40625 171.984375 L 465.601562 170.25 L 466.792969 166.09375 L 467.984375 163.472656 L 469.175781 166.703125 L 470.367188 165.199219 L 471.558594 167.324219 L 472.75 171.984375 L 473.945312 173.808594 L 475.136719 180.34375 L 476.328125 177.753906 L 477.519531 171.28125 "/>
<g fill="rgb(35.294118%, 40%, 44.705882%)" fill-opacity="1">
<use xlink:href="#glyph-0-0" x="36.246094" y="272.546875"/>
</g>
<g fill="rgb(35.294118%, 40%, 44.705882%)" fill-opacity="1">
<use xlink:href="#glyph-0-0" x="30.90625" y="189.078125"/>
<use xlink:href="#glyph-0-1" x="36.245312" y="189.078125"/>
</g>
<g fill="rgb(35.294118%, 40%, 44.705882%)" fill-opacity="1">
<use xlink:href="#glyph-0-0" x="25.570312" y="105.605469"/>
<use xlink:href="#glyph-0-1" x="30.909375" y="105.605469"/>
<use xlink:href="#glyph-0-1" x="36.248438" y="105.605469"/>
</g>
<g fill="rgb(35.294118%, 40%, 44.705882%)" fill-opacity="1">
<use xlink:href="#glyph-0-0" x="20.230469" y="22.136719"/>
<use xlink:href="#glyph-0-1" x="25.569531" y="22.136719"/>
<use xlink:href="#glyph-0-1" x="30.908594" y="22.136719"/>
<use xlink:href="#glyph-0-1" x="36.247656" y="22.136719"/>
</g>
<g fill="rgb(35.294118%, 40%, 44.705882%)" fill-opacity="1">
<use xlink:href="#glyph-0-2" x="105.691406" y="293.898438"/>
<use xlink:href="#glyph-0-3" x="113.688281" y="293.898438"/>
<use xlink:href="#glyph-0-4" x="119.027344" y="293.898438"/>
</g>
<g fill="rgb(35.294118%, 40%, 44.705882%)" fill-opacity="1">
<use xlink:href="#glyph-0-2" x="177.601562" y="293.898438"/>
<use xlink:href="#glyph-0-3" x="185.598437" y="293.898438"/>
<use xlink:href="#glyph-0-5" x="190.9375" y="293.898438"/>
</g>
<g fill="rgb(35.294118%, 40%, 44.705882%)" fill-opacity="1">
<use xlink:href="#glyph-0-6" x="253.246094" y="293.898438"/>
<use xlink:href="#glyph-0-7" x="258.046094" y="293.898438"/>
<use xlink:href="#glyph-0-8" x="263.385156" y="293.898438"/>
</g>
<g fill="rgb(35.294118%, 40%, 44.705882%)" fill-opacity="1">
<use xlink:href="#glyph-0-9" x="324.746094" y="293.898438"/>
<use xlink:href="#glyph-0-10" x="331.149219" y="293.898438"/>
<use xlink:href="#glyph-0-11" x="336.488281" y="293.898438"/>
</g>
<g fill="rgb(35.294118%, 40%, 44.705882%)" fill-opacity="1">
<use xlink:href="#glyph-0-12" x="397.464844" y="293.898438"/>
<use xlink:href="#glyph-0-13" x="404.397656" y="293.898438"/>
<use xlink:href="#glyph-0-14" x="409.736719" y="293.898438"/>
</g>
<g fill="rgb(35.294118%, 40%, 44.705882%)" fill-opacity="1">
<use xlink:href="#glyph-0-6" x="470.972656" y="293.898438"/>
<use xlink:href="#glyph-0-3" x="475.772656" y="293.898438"/>
<use xlink:href="#glyph-0-15" x="481.111719" y="293.898438"/>
</g>
<g fill="rgb(35.294118%, 40%, 44.705882%)" fill-opacity="1">
<use xlink:href="#glyph-1-0" x="14.585938" y="220.839844"/>
<use xlink:href="#glyph-1-1" x="14.585938" y="212.173828"/>
<use xlink:href="#glyph-1-2" x="14.585938" y="205.5"/>
<use xlink:href="#glyph-1-3" x="14.585938" y="196.833984"/>
<use xlink:href="#glyph-1-4" x="14.585938" y="193.5"/>
<use xlink:href="#glyph-1-5" x="14.585938" y="187.5"/>
<use xlink:href="#glyph-1-6" x="14.585938" y="180.826172"/>
<use xlink:href="#glyph-1-1" x="14.585938" y="174.826172"/>
<use xlink:href="#glyph-1-6" x="14.585938" y="168.152344"/>
<use xlink:href="#glyph-1-7" x="14.585938" y="162.152344"/>
<use xlink:href="#glyph-1-3" x="14.585938" y="158.818359"/>
<use xlink:href="#glyph-1-6" x="14.585938" y="155.484375"/>
<use xlink:href="#glyph-1-1" x="14.585938" y="149.484375"/>
<use xlink:href="#glyph-1-8" x="14.585938" y="142.810547"/>
<use xlink:href="#glyph-1-1" x="14.585938" y="136.810547"/>
<use xlink:href="#glyph-1-9" x="14.585938" y="130.136719"/>
<use xlink:href="#glyph-1-10" x="14.585938" y="123.462891"/>
<use xlink:href="#glyph-1-11" x="14.585938" y="119.466797"/>
<use xlink:href="#glyph-1-5" x="14.585938" y="112.792969"/>
<use xlink:href="#glyph-1-12" x="14.585938" y="106.119141"/>
<use xlink:href="#glyph-1-3" x="14.585938" y="100.119141"/>
<use xlink:href="#glyph-1-13" x="14.585938" y="96.785156"/>
<use xlink:href="#glyph-1-1" x="14.585938" y="86.789062"/>
<use xlink:href="#glyph-1-5" x="14.585938" y="80.115234"/>
<use xlink:href="#glyph-1-9" x="14.585938" y="73.441406"/>
</g>
</svg>
